<svg width="200" height="250" viewBox="0 0 200 250" fill="none" xmlns="http://www.w3.org/2000/svg">
<path d="M96.4993 160.752C127.35 160.752 152.359 136.734 152.359 107.105C152.359 77.4768 127.35 53.4581 96.4993 53.4581C65.6486 53.4581 40.6392 77.4768 40.6392 107.105C40.6392 136.734 65.6486 160.752 96.4993 160.752Z" fill="#FFC1C1"/>
<path d="M172.448 175.906H24.0286V172.685H172.448C172.528 172.685 172.607 172.7 172.681 172.729C172.754 172.759 172.821 172.801 172.877 172.856C172.934 172.91 172.978 172.974 173.009 173.044C173.039 173.115 173.055 173.191 173.055 173.267V175.324C173.055 175.478 172.991 175.627 172.877 175.736C172.764 175.845 172.609 175.906 172.448 175.906V175.906Z" fill="#425AC2"/>
<path d="M25.242 173.279H24.0166V249.631H25.242V173.279Z" fill="#425AC2"/>
<path d="M172.449 173.279H172.437C172.102 173.279 171.83 173.54 171.83 173.862V249.049C171.83 249.37 172.102 249.631 172.437 249.631H172.449C172.784 249.631 173.055 249.37 173.055 249.049V173.862C173.055 173.54 172.784 173.279 172.449 173.279Z" fill="#425AC2"/>
<path d="M86.3502 48.2981C85.9558 48.6756 85.4217 48.8875 84.8649 48.8875C84.3081 48.8875 83.774 48.6756 83.3796 48.2981V48.2981C82.9866 47.9193 82.7659 47.4064 82.7659 46.8716C82.7659 46.3369 82.9866 45.824 83.3796 45.4452L86.9196 42.0573C87.1122 41.8679 87.3422 41.7174 87.5962 41.6146C87.8502 41.5118 88.1231 41.4589 88.3987 41.4589C88.6744 41.4589 88.9472 41.5118 89.2013 41.6146C89.4553 41.7174 89.6853 41.8679 89.8779 42.0573C90.0751 42.2422 90.2318 42.4632 90.3388 42.7071C90.4459 42.9511 90.501 43.2131 90.501 43.4779C90.501 43.7426 90.4459 44.0046 90.3388 44.2486C90.2318 44.4925 90.0751 44.7135 89.8779 44.8984L86.3502 48.2981Z" fill="#8EA8DD"/>
<path d="M111.391 48.2983C111.785 48.6757 112.319 48.8877 112.876 48.8877C113.433 48.8877 113.967 48.6757 114.361 48.2983V48.2983C114.754 47.9195 114.975 47.4065 114.975 46.8718C114.975 46.337 114.754 45.8241 114.361 45.4453L110.821 42.0575C110.628 41.8677 110.396 41.7169 110.141 41.614C109.886 41.5111 109.613 41.4581 109.336 41.4581C109.059 41.4581 108.785 41.5111 108.53 41.614C108.275 41.7169 108.044 41.8677 107.851 42.0575V42.0575C107.458 42.4342 107.238 42.9452 107.238 43.478C107.238 44.0108 107.458 44.5218 107.851 44.8985L111.391 48.2983Z" fill="#8EA8DD"/>
<path d="M88.7635 10.0685C88.1544 9.20069 87.827 8.17887 87.8228 7.13234C87.8228 3.20955 92.6129 0 98.4922 0C104.372 0 109.162 3.18578 109.162 7.13234C109.156 8.09685 108.878 9.04184 108.357 9.86641L106.785 8.97486C107.143 8.42109 107.335 7.78385 107.342 7.13234C107.342 4.21997 103.295 1.7712 98.4922 1.7712C93.6897 1.7712 89.6423 4.21997 89.6423 7.13234C89.6504 7.84201 89.8788 8.53322 90.2983 9.11751L88.7635 10.0685Z" fill="#A4B8EA"/>
<path d="M109.068 8.67873L105.446 14.1017L112.707 18.5754L116.329 13.1524L109.068 8.67873Z" fill="#FFC1C1"/>
<path d="M105.981 9.92602C106.145 9.59519 106.335 9.27722 106.55 8.97504C107.565 7.65565 109.077 6.77086 110.763 6.51065C112.449 6.25045 114.174 6.63559 115.568 7.58336C116.961 8.53114 117.912 9.96596 118.217 11.5797C118.521 13.1935 118.154 14.8575 117.195 16.2144C116.975 16.5131 116.726 16.7917 116.452 17.0465L105.981 9.92602Z" fill="#FE958E"/>
<path d="M87.9912 8.99227L80.7297 13.4659L84.3521 18.8889L91.6136 14.4152L87.9912 8.99227Z" fill="#FFC1C1"/>
<path d="M112.719 43.3876C120.462 35.9507 120.462 23.8932 112.719 16.4563C104.975 9.01939 92.4199 9.01937 84.6762 16.4563C76.9325 23.8932 76.9325 35.9507 84.6762 43.3876C92.4199 50.8245 104.975 50.8245 112.719 43.3876Z" fill="#FE958E"/>
<path d="M102.513 45.3183C111.372 43.2977 116.848 34.7624 114.745 26.2543C112.641 17.7462 103.753 12.4871 94.8941 14.5077C86.035 16.5284 80.5589 25.0636 82.6629 33.5717C84.7669 42.0798 93.6542 47.339 102.513 45.3183Z" fill="#FEE2E3"/>
<path d="M99.3216 16.1312C99.3241 16.2493 99.2899 16.3653 99.2234 16.4646C99.1569 16.5639 99.0611 16.642 98.9483 16.6888C98.8354 16.7356 98.7106 16.7491 98.5898 16.7275C98.4689 16.7059 98.3575 16.6503 98.2697 16.5676C98.1819 16.485 98.1217 16.3791 98.0968 16.2635C98.0719 16.1479 98.0834 16.0278 98.1299 15.9185C98.1763 15.8092 98.2556 15.7157 98.3576 15.6498C98.4597 15.584 98.5798 15.5488 98.7027 15.5488C98.7834 15.5472 98.8636 15.5611 98.9386 15.5897C99.0137 15.6182 99.082 15.6609 99.1396 15.7151C99.1973 15.7694 99.243 15.8341 99.2743 15.9056C99.3055 15.977 99.3216 16.0537 99.3216 16.1312V16.1312Z" fill="#425AC2"/>
<path d="M92.0561 17.6881C92.098 17.755 92.1255 17.8292 92.1369 17.9064C92.1484 17.9836 92.1436 18.0622 92.1228 18.1376C92.102 18.213 92.0657 18.2836 92.016 18.3452C91.9663 18.4069 91.9042 18.4583 91.8333 18.4965C91.6931 18.5708 91.5284 18.59 91.3738 18.5501C91.2191 18.5102 91.0866 18.4143 91.004 18.2825C90.9267 18.1479 90.9067 17.9897 90.9482 17.8411C90.9897 17.6926 91.0896 17.5653 91.2268 17.4861C91.3648 17.4076 91.5295 17.3849 91.6849 17.4227C91.8403 17.4606 91.9738 17.556 92.0561 17.6881Z" fill="#425AC2"/>
<path d="M86.5852 22.5144C86.6556 22.5514 86.7175 22.6017 86.7671 22.6623C86.8167 22.7229 86.853 22.7925 86.8738 22.8669C86.8946 22.9413 86.8996 23.019 86.8882 23.0953C86.8769 23.1716 86.8497 23.2449 86.8081 23.3108C86.7255 23.4426 86.593 23.5385 86.4383 23.5784C86.2837 23.6183 86.1189 23.5991 85.9787 23.5248C85.9097 23.4866 85.8491 23.4356 85.8005 23.3749C85.7519 23.3142 85.7163 23.2448 85.6956 23.1709C85.6749 23.0969 85.6696 23.0198 85.68 22.9439C85.6903 22.8679 85.7161 22.7947 85.756 22.7284C85.7958 22.662 85.8488 22.6039 85.912 22.5572C85.9753 22.5105 86.0474 22.4763 86.1244 22.4564C86.2014 22.4366 86.2818 22.4315 86.3609 22.4414C86.4399 22.4513 86.5161 22.4761 86.5852 22.5144V22.5144Z" fill="#425AC2"/>
<path d="M84.3577 29.3259C84.4777 29.3259 84.5949 29.36 84.6947 29.424C84.7944 29.488 84.8721 29.579 84.918 29.6854C84.9639 29.7919 84.976 29.909 84.9526 30.022C84.9292 30.135 84.8714 30.2388 84.7866 30.3202C84.7017 30.4017 84.5937 30.4572 84.476 30.4796C84.3584 30.5021 84.2364 30.4906 84.1256 30.4465C84.0148 30.4024 83.9201 30.3277 83.8534 30.232C83.7868 30.1362 83.7512 30.0236 83.7512 29.9083C83.7512 29.7539 83.8151 29.6057 83.9288 29.4965C84.0426 29.3872 84.1969 29.3259 84.3577 29.3259Z" fill="#425AC2"/>
<path d="M85.9793 36.2916C86.1195 36.2173 86.2842 36.198 86.4388 36.2379C86.5935 36.2778 86.726 36.3738 86.8086 36.5055C86.8683 36.6054 86.8959 36.72 86.8879 36.8348C86.8799 36.9497 86.8366 37.0598 86.7635 37.151C86.6904 37.2423 86.5908 37.3107 86.4772 37.3476C86.3636 37.3845 86.2412 37.3883 86.1254 37.3584C86.0096 37.3285 85.9056 37.2663 85.8266 37.1797C85.7476 37.0932 85.6971 36.986 85.6815 36.8718C85.6658 36.7577 85.6857 36.6416 85.7388 36.5384C85.7918 36.4351 85.8755 36.3492 85.9793 36.2916V36.2916Z" fill="#425AC2"/>
<path d="M91.004 41.5459C91.0865 41.4142 91.2191 41.3183 91.3737 41.2784C91.5283 41.2385 91.6931 41.2577 91.8333 41.332C91.9744 41.4092 92.0779 41.5371 92.1208 41.6876C92.1638 41.8381 92.1427 41.9988 92.0623 42.1343C91.9818 42.2699 91.8486 42.3692 91.6919 42.4105C91.5353 42.4517 91.3679 42.4315 91.2268 42.3543C91.0887 42.2728 90.9885 42.1433 90.947 41.9929C90.9056 41.8424 90.9259 41.6824 91.004 41.5459Z" fill="#425AC2"/>
<path d="M98.0961 43.6858C98.0936 43.5673 98.1281 43.4508 98.1952 43.3513C98.2622 43.2517 98.3588 43.1737 98.4723 43.1272C98.5859 43.0808 98.7113 43.068 98.8325 43.0906C98.9537 43.1131 99.0652 43.1699 99.1524 43.2538C99.2397 43.3376 99.2989 43.4446 99.3224 43.561C99.3459 43.6774 99.3326 43.7979 99.2842 43.9069C99.2359 44.016 99.1546 44.1087 99.051 44.1731C98.9473 44.2375 98.826 44.2706 98.7026 44.2683C98.5417 44.2683 98.3875 44.207 98.2737 44.0977C98.16 43.9885 98.0961 43.8403 98.0961 43.6858Z" fill="#425AC2"/>
<path d="M105.362 42.1403C105.32 42.0735 105.292 41.9993 105.281 41.922C105.269 41.8448 105.274 41.7662 105.295 41.6909C105.316 41.6155 105.352 41.5449 105.402 41.4832C105.451 41.4216 105.513 41.3701 105.584 41.332C105.725 41.2577 105.889 41.2385 106.044 41.2784C106.199 41.3183 106.331 41.4142 106.414 41.5459C106.492 41.6824 106.512 41.8424 106.471 41.9929C106.429 42.1433 106.329 42.2728 106.191 42.3543C106.051 42.4286 105.886 42.4478 105.731 42.4079C105.577 42.368 105.444 42.2721 105.362 42.1403V42.1403Z" fill="#425AC2"/>
<path d="M110.834 37.3024C110.763 37.2654 110.701 37.2151 110.652 37.1545C110.602 37.0939 110.566 37.0243 110.545 36.9499C110.524 36.8755 110.519 36.7978 110.531 36.7215C110.542 36.6452 110.569 36.5719 110.611 36.506C110.651 36.4396 110.704 36.3814 110.767 36.3348C110.83 36.2881 110.902 36.2539 110.979 36.234C111.056 36.2142 111.137 36.209 111.216 36.219C111.295 36.2289 111.371 36.2537 111.44 36.292C111.509 36.3302 111.57 36.3812 111.618 36.4419C111.667 36.5026 111.703 36.5719 111.723 36.6459C111.744 36.7199 111.749 36.797 111.739 36.8729C111.729 36.9489 111.703 37.0221 111.663 37.0884C111.624 37.156 111.572 37.2154 111.509 37.2631C111.446 37.3107 111.373 37.3456 111.296 37.3656C111.218 37.3856 111.137 37.3903 111.058 37.3794C110.979 37.3686 110.902 37.3424 110.834 37.3024V37.3024Z" fill="#425AC2"/>
<path d="M113.062 30.4908C113.397 30.4908 113.668 30.23 113.668 29.9083C113.668 29.5866 113.397 29.3259 113.062 29.3259C112.727 29.3259 112.455 29.5866 112.455 29.9083C112.455 30.23 112.727 30.4908 113.062 30.4908Z" fill="#425AC2"/>
<path d="M111.44 23.5248C111.299 23.5991 111.135 23.6183 110.98 23.5784C110.825 23.5385 110.693 23.4426 110.61 23.3108C110.53 23.1768 110.508 23.0177 110.55 22.8683C110.592 22.7189 110.694 22.5916 110.833 22.5144C110.973 22.4371 111.138 22.4163 111.294 22.4564C111.449 22.4966 111.582 22.5944 111.662 22.7284C111.702 22.7947 111.728 22.8679 111.739 22.9439C111.749 23.0198 111.744 23.097 111.723 23.171C111.702 23.2449 111.667 23.3143 111.618 23.375C111.569 23.4357 111.509 23.4866 111.44 23.5248Z" fill="#425AC2"/>
<path d="M106.414 18.271C106.331 18.4028 106.199 18.4987 106.044 18.5386C105.889 18.5785 105.725 18.5592 105.584 18.4849C105.513 18.4468 105.451 18.3954 105.402 18.3337C105.352 18.2721 105.316 18.2014 105.295 18.1261C105.274 18.0507 105.269 17.972 105.281 17.8948C105.292 17.8176 105.32 17.7434 105.362 17.6766C105.444 17.5445 105.577 17.4491 105.733 17.4112C105.888 17.3733 106.053 17.3961 106.191 17.4745C106.328 17.5538 106.428 17.6811 106.469 17.8296C106.511 17.9781 106.491 18.1363 106.414 18.271Z" fill="#425AC2"/>
<path d="M92.0854 25.4401L91.4937 26.5112L98.1961 29.9265L98.7878 28.8554L92.0854 25.4401Z" fill="#425AC2"/>
<path d="M108.691 23.9277L98.697 29.2194L99.1512 30.0106L109.145 24.7188L108.691 23.9277Z" fill="#425AC2"/>
<path d="M101.6 29.9085C101.615 30.4599 101.458 31.0031 101.151 31.469C100.843 31.9348 100.398 32.3024 99.8727 32.5249C99.3471 32.7474 98.7645 32.8147 98.1989 32.7185C97.6334 32.6222 97.1104 32.3666 96.6965 31.9841C96.2826 31.6017 95.9963 31.1097 95.8743 30.5707C95.7522 30.0317 95.7998 29.47 96.0109 28.957C96.2221 28.444 96.5873 28.0029 97.0601 27.6897C97.533 27.3765 98.0921 27.2054 98.6664 27.1982C99.4292 27.1854 100.166 27.4635 100.716 27.9715C101.266 28.4794 101.584 29.1759 101.6 29.9085Z" fill="#FE958E"/>
<path d="M91.1031 10.1875C90.9427 9.85266 90.7478 9.53408 90.5214 9.23651C89.5218 7.88243 88.003 6.96517 86.2992 6.68651C84.5954 6.40785 82.8461 6.79061 81.4362 7.7506C80.0262 8.7106 79.0712 10.1692 78.781 11.8055C78.4908 13.4418 78.8894 15.1217 79.889 16.4758C80.1089 16.7714 80.3532 17.0497 80.6193 17.3079L91.1031 10.1875Z" fill="#FE958E"/>
<path d="M2.87606 81.6539C2.62184 81.7544 2.34938 81.8056 2.07445 81.8044C1.79951 81.8032 1.52755 81.7496 1.27431 81.6468C1.02107 81.544 0.791585 81.394 0.599109 81.2054C0.406634 81.0169 0.255 80.7935 0.152986 80.5484V80.5484C-0.0550996 80.0549 -0.0507609 79.5023 0.165073 79.012C0.380907 78.5216 0.790579 78.1336 1.30409 77.9331L5.93333 76.1144C6.44915 75.9173 7.02493 75.9228 7.5366 76.1296C8.04828 76.3364 8.45486 76.7279 8.66877 77.2199C8.87731 77.715 8.87331 78.2693 8.65761 78.7616C8.44191 79.2538 8.03206 79.6441 7.51766 79.847L2.87606 81.6539Z" fill="#8EA8DD"/>
<path d="M25.9599 90.9972C26.0632 91.2429 26.216 91.4664 26.4097 91.6551C26.6033 91.8438 26.8338 91.9938 27.0881 92.0965C27.3423 92.1993 27.6152 92.2527 27.8911 92.2538C28.1669 92.2549 28.4402 92.2035 28.6953 92.1028V92.1028C29.2097 91.8998 29.6196 91.5096 29.8353 91.0173C30.051 90.525 30.055 89.9708 29.8464 89.4757L27.9526 85.0298C27.7439 84.5367 27.3399 84.1432 26.8293 83.9359C26.3187 83.7287 25.7434 83.7245 25.2296 83.9243V83.9243C24.9738 84.0235 24.741 84.1704 24.5446 84.3563C24.3481 84.5423 24.1919 84.7637 24.0849 85.0078C23.9779 85.252 23.9223 85.5141 23.9212 85.779C23.9201 86.0439 23.9735 86.3064 24.0785 86.5514L25.9599 90.9972Z" fill="#8EA8DD"/>
<path d="M20.5746 47.3351C20.3602 46.3049 20.4723 45.2366 20.8964 44.2682C22.4808 40.702 28.1745 39.5133 33.5959 41.7005C39.0172 43.8878 42.1488 48.6189 40.5645 52.2326C40.169 53.1228 39.5268 53.8916 38.7078 54.4555L37.6186 53.0409C38.1637 52.6625 38.5915 52.1489 38.8563 51.555C40.0941 48.8804 37.2844 45.1003 32.8656 43.3172C28.4468 41.5341 23.7185 42.283 22.555 44.9576C22.2726 45.6117 22.1994 46.3318 22.3446 47.026L20.5746 47.3351Z" fill="#A4B8EA"/>
<path d="M39.8301 53.6652L34.2993 57.3117L39.1821 64.1424L44.7129 60.4959L39.8301 53.6652Z" fill="#425AC2"/>
<path d="M36.4814 53.6231C36.7652 53.3751 37.0718 53.1523 37.3974 52.9574C38.1655 52.4903 39.0269 52.1825 39.9261 52.0539C40.8254 51.9253 41.7427 51.9787 42.6192 52.2105C43.4957 52.4424 44.3121 52.8477 45.016 53.4004C45.7198 53.9531 46.2956 54.641 46.7063 55.42C47.1171 56.1989 47.3537 57.0517 47.4011 57.9237C47.4485 58.7957 47.3055 59.6675 46.9815 60.4833C46.6574 61.2991 46.1593 62.0408 45.5192 62.6609C44.879 63.2809 44.111 63.7656 43.2644 64.0838L36.4814 53.6231Z" fill="#FFC1C1"/>
<path d="M20.3099 46.026L11.8096 47.442L12.9561 53.79L21.4563 52.3741L20.3099 46.026Z" fill="#425AC2"/>
<path d="M39.9837 76.7194C38.4568 80.1799 35.8966 83.1284 32.6263 85.1927C29.356 87.257 25.5222 88.3445 21.6089 88.3179C17.6955 88.2913 13.8781 87.1518 10.6386 85.0432C7.39899 82.9347 4.88253 79.9517 3.40682 76.4708C1.93112 72.9898 1.56234 69.1671 2.34705 65.485C3.13177 61.8029 5.03479 58.4267 7.81588 55.7825C10.597 53.1383 14.1314 51.3447 17.973 50.6281C21.8147 49.9115 25.7913 50.3041 29.4008 51.7562C31.8059 52.7238 33.9883 54.1379 35.8228 55.9176C37.6574 57.6973 39.1079 59.8073 40.0912 62.1267C41.0745 64.4461 41.5712 66.9291 41.5527 69.4333C41.5343 71.9375 41.001 74.4136 39.9837 76.7194Z" fill="#FFC1C1"/>
<path d="M27.8843 84.0136C36.3244 80.7321 40.3965 71.501 36.9796 63.3952C33.5627 55.2895 23.9508 51.3787 15.5107 54.6602C7.07057 57.9417 2.99844 67.1729 6.41532 75.2786C9.8322 83.3843 19.4442 87.2951 27.8843 84.0136Z" fill="#FEE2E3"/>
<path d="M27.841 56.8449C27.8101 56.9159 27.7649 56.9804 27.7081 57.0347C27.6513 57.089 27.5839 57.1319 27.5097 57.1612C27.4356 57.1904 27.3562 57.2054 27.276 57.2051C27.1959 57.2049 27.1166 57.1895 27.0426 57.1599C26.9687 57.1302 26.9015 57.0869 26.845 57.0323C26.7885 56.9777 26.7437 56.913 26.7133 56.8418C26.6828 56.7706 26.6673 56.6943 26.6675 56.6174C26.6677 56.5404 26.6837 56.4642 26.7146 56.3932C26.7799 56.2508 26.9007 56.1386 27.0512 56.0809C27.2016 56.0231 27.3696 56.0242 27.5192 56.0841C27.6665 56.1444 27.7831 56.2582 27.8434 56.4007C27.9037 56.5433 27.9028 56.703 27.841 56.8449Z" fill="#425AC2"/>
<path d="M20.5254 55.5732C20.5358 55.6497 20.5302 55.7275 20.509 55.802C20.4878 55.8765 20.4513 55.9462 20.4018 56.0071C20.3523 56.0679 20.2907 56.1187 20.2205 56.1564C20.1504 56.1942 20.0731 56.2182 19.9932 56.227C19.834 56.2472 19.673 56.2061 19.5454 56.1125C19.4178 56.0189 19.334 55.8805 19.3124 55.7277C19.3021 55.6511 19.3077 55.5733 19.3289 55.4988C19.3501 55.4243 19.3865 55.3547 19.4361 55.2938C19.4856 55.233 19.5472 55.1822 19.6174 55.1444C19.6875 55.1067 19.7648 55.0827 19.8447 55.0739C20.0039 55.0536 20.1649 55.0948 20.2925 55.1884C20.4201 55.282 20.5039 55.4203 20.5254 55.5732Z" fill="#425AC2"/>
<path d="M13.5207 57.9868C13.5714 58.0469 13.6089 58.1163 13.6308 58.1907C13.6527 58.2652 13.6587 58.3431 13.6482 58.4198C13.6378 58.4966 13.6113 58.5704 13.5702 58.637C13.5291 58.7036 13.4743 58.7614 13.4093 58.807C13.3452 58.8535 13.2722 58.8874 13.1945 58.9066C13.1168 58.9258 13.0358 58.93 12.9564 58.9189C12.8769 58.9079 12.8006 58.8818 12.7317 58.8421C12.6628 58.8025 12.6028 58.7502 12.5552 58.6881C12.5071 58.6276 12.4721 58.5585 12.4523 58.4847C12.4324 58.411 12.4281 58.3342 12.4397 58.2589C12.4512 58.1836 12.4783 58.1112 12.5194 58.0461C12.5605 57.981 12.6148 57.9245 12.679 57.8798C12.7406 57.8314 12.8118 57.7956 12.8883 57.7747C12.9649 57.7537 13.0451 57.7481 13.124 57.7581C13.2029 57.7681 13.2788 57.7936 13.347 57.833C13.4152 57.8723 13.4744 57.9246 13.5207 57.9868V57.9868Z" fill="#425AC2"/>
<path d="M8.71767 63.4314C8.86595 63.4941 8.98271 63.6102 9.04288 63.7546C9.10305 63.8991 9.10182 64.0605 9.03948 64.2041C8.97671 64.3456 8.85817 64.4576 8.70976 64.5155C8.56134 64.5734 8.39509 64.5726 8.24731 64.5132C8.17326 64.4846 8.10595 64.442 8.0494 64.3879C7.99286 64.3339 7.94823 64.2694 7.91819 64.1984C7.88816 64.1274 7.87333 64.0513 7.87459 63.9747C7.87584 63.898 7.89316 63.8224 7.9255 63.7524C7.95542 63.6812 7.99967 63.6164 8.05573 63.5618C8.11178 63.5071 8.17852 63.4636 8.25213 63.4338C8.32574 63.404 8.40476 63.3884 8.48465 63.388C8.56454 63.3876 8.64373 63.4024 8.71767 63.4314V63.4314Z" fill="#425AC2"/>
<path d="M7.39424 70.4554C7.47398 70.4454 7.555 70.4508 7.63256 70.4711C7.71012 70.4915 7.78268 70.5265 7.84603 70.5741C7.90938 70.6216 7.96225 70.6808 8.00157 70.7482C8.04088 70.8156 8.06584 70.8898 8.07502 70.9665C8.08866 71.0806 8.0669 71.196 8.01244 71.2982C7.95799 71.4005 7.87328 71.485 7.76898 71.5411C7.66467 71.5972 7.54542 71.6225 7.4262 71.6137C7.30698 71.605 7.19311 71.5626 7.09891 71.4918C7.00472 71.4211 6.93439 71.3252 6.89677 71.2162C6.85915 71.1072 6.85592 70.99 6.88748 70.8792C6.91903 70.7685 6.98399 70.6691 7.07415 70.5937C7.16432 70.5183 7.27568 70.4702 7.39424 70.4554V70.4554Z" fill="#425AC2"/>
<path d="M9.90575 77.1847C9.96854 77.1327 10.0418 77.0936 10.1209 77.0699C10.2 77.0461 10.2834 77.0382 10.3658 77.0467C10.4483 77.0551 10.528 77.0797 10.6002 77.1189C10.6724 77.158 10.7354 77.211 10.7854 77.2745C10.8354 77.338 10.8714 77.4107 10.891 77.488C10.9106 77.5654 10.9135 77.6458 10.8995 77.7242C10.8855 77.8027 10.8549 77.8776 10.8096 77.9443C10.7643 78.011 10.7052 78.068 10.636 78.1119C10.5071 78.204 10.3458 78.2444 10.1864 78.2245C10.027 78.2045 9.88199 78.1257 9.78198 78.0049C9.73355 77.9434 9.69832 77.8733 9.67831 77.7986C9.65831 77.724 9.65394 77.6463 9.66545 77.57C9.67696 77.4937 9.70413 77.4203 9.74538 77.3542C9.78663 77.288 9.84114 77.2304 9.90575 77.1847Z" fill="#425AC2"/>
<path d="M15.5749 81.7962C15.6046 81.7251 15.649 81.6605 15.7053 81.6062C15.7616 81.5519 15.8287 81.509 15.9026 81.4802C15.9766 81.4513 16.0558 81.4371 16.1356 81.4383C16.2154 81.4395 16.2941 81.4561 16.367 81.4872C16.4778 81.5317 16.5724 81.6069 16.6387 81.7031C16.7049 81.7993 16.74 81.9122 16.7394 82.0275C16.7387 82.1429 16.7024 82.2555 16.6351 82.351C16.5678 82.4466 16.4724 82.5207 16.3611 82.5642C16.2499 82.6076 16.1277 82.6182 16.01 82.5949C15.8924 82.5715 15.7846 82.5152 15.7004 82.4329C15.6162 82.3507 15.5593 82.2462 15.537 82.1329C15.5146 82.0196 15.5278 81.9024 15.5749 81.7962V81.7962Z" fill="#425AC2"/>
<path d="M22.8907 83.0682C22.877 82.9541 22.8988 82.8387 22.9533 82.7365C23.0077 82.6343 23.0924 82.5498 23.1967 82.4936C23.301 82.4375 23.4203 82.4122 23.5395 82.421C23.6587 82.4298 23.7726 82.4722 23.8668 82.5429C23.961 82.6136 24.0313 82.7095 24.0689 82.8185C24.1065 82.9275 24.1098 83.0448 24.0782 83.1555C24.0467 83.2663 23.9817 83.3656 23.8915 83.441C23.8014 83.5164 23.69 83.5646 23.5715 83.5794C23.4917 83.5893 23.4107 83.584 23.3331 83.5636C23.2556 83.5432 23.183 83.5082 23.1197 83.4606C23.0563 83.4131 23.0034 83.3539 22.9641 83.2865C22.9248 83.2191 22.8999 83.145 22.8907 83.0682V83.0682Z" fill="#425AC2"/>
<path d="M29.8842 80.6913C29.8132 80.5988 29.7723 80.4882 29.7666 80.3734C29.7608 80.2587 29.7906 80.1449 29.8521 80.0463C29.9136 79.9477 30.004 79.8688 30.1121 79.8195C30.2201 79.7702 30.341 79.7527 30.4594 79.7691C30.5778 79.7856 30.6885 79.8354 30.7775 79.9121C30.8665 79.9889 30.9299 80.0892 30.9598 80.2004C30.9896 80.3117 30.9844 80.429 30.945 80.5375C30.9056 80.6459 30.8337 80.7408 30.7383 80.8101C30.6078 80.901 30.4456 80.9394 30.2861 80.9172C30.1266 80.895 29.9824 80.814 29.8842 80.6913Z" fill="#425AC2"/>
<path d="M34.6983 75.211C34.5508 75.1505 34.4335 75.0373 34.3712 74.8954C34.3088 74.7535 34.3063 74.5939 34.3641 74.4502C34.4296 74.3077 34.5497 74.1948 34.6995 74.1351C34.8493 74.0753 35.0173 74.0732 35.1686 74.1293C35.3169 74.192 35.4337 74.308 35.4938 74.4524C35.554 74.5969 35.5528 74.7583 35.4905 74.9019C35.4607 74.973 35.4164 75.0377 35.3601 75.092C35.3038 75.1463 35.2366 75.1891 35.1627 75.218C35.0888 75.2468 35.0095 75.2611 34.9298 75.2599C34.85 75.2587 34.7712 75.2421 34.6983 75.211V75.211Z" fill="#425AC2"/>
<path d="M36.0229 68.1862C35.9431 68.1962 35.8621 68.1908 35.7846 68.1704C35.707 68.15 35.6344 68.115 35.5711 68.0675C35.5077 68.0199 35.4549 67.9607 35.4155 67.8934C35.3762 67.826 35.3513 67.7518 35.3421 67.675C35.3285 67.561 35.3502 67.4456 35.4047 67.3433C35.4591 67.2411 35.5438 67.1566 35.6481 67.1005C35.7524 67.0443 35.8717 67.0191 35.9909 67.0278C36.1101 67.0366 36.224 67.079 36.3182 67.1497C36.4124 67.2204 36.4827 67.3163 36.5203 67.4253C36.558 67.5343 36.5612 67.6516 36.5296 67.7623C36.4981 67.8731 36.4331 67.9724 36.343 68.0479C36.2528 68.1233 36.1414 68.1714 36.0229 68.1862Z" fill="#425AC2"/>
<path d="M33.51 61.4695C33.3804 61.5625 33.2175 61.6022 33.0574 61.5799C32.8972 61.5576 32.7528 61.4752 32.656 61.3506C32.5591 61.2261 32.5178 61.0697 32.541 60.9159C32.5642 60.7621 32.6501 60.6234 32.7797 60.5304C32.9094 60.4374 33.0722 60.3976 33.2324 60.4199C33.3926 60.4422 33.537 60.5248 33.6338 60.6493C33.7306 60.7738 33.772 60.9302 33.7488 61.084C33.7256 61.2378 33.6397 61.3765 33.51 61.4695V61.4695Z" fill="#425AC2"/>
<path d="M17.3955 62.7955L16.4172 63.562L21.2138 69.2081L22.192 68.4416L17.3955 62.7955Z" fill="#425AC2"/>
<path d="M33.3009 67.5605L21.9519 68.7119L22.0507 69.6103L33.3997 68.4589L33.3009 67.5605Z" fill="#425AC2"/>
<path d="M24.4008 70.3962C24.1906 70.9125 23.8245 71.3566 23.3495 71.6717C22.8746 71.9867 22.3124 72.1583 21.7352 72.1644C21.1581 72.1705 20.5921 72.0108 20.1101 71.7058C19.6281 71.4009 19.2519 70.9645 19.0299 70.4528C18.8079 69.9411 18.7502 69.3773 18.8641 68.8339C18.9781 68.2904 19.2585 67.7921 19.6694 67.4028C20.0803 67.0134 20.603 66.7509 21.1703 66.6488C21.7377 66.5468 22.3239 66.6099 22.8536 66.8301C23.5423 67.1162 24.0884 67.6479 24.377 68.3131C24.6656 68.9783 24.6742 69.7251 24.4008 70.3962Z" fill="#FE958E"/>
<path d="M22.6667 48.3104C22.6539 47.946 22.6041 47.5837 22.5182 47.2286C22.3345 46.4262 21.9881 45.6665 21.4987 44.9927C21.0093 44.3189 20.3864 43.7442 19.6658 43.3016C18.9451 42.859 18.1408 42.557 17.2986 42.4129C16.4564 42.2688 15.5929 42.2854 14.7575 42.4618C13.922 42.6382 13.1308 42.9709 12.4292 43.441C11.7277 43.911 11.1293 44.5091 10.6684 45.2012C10.2075 45.8933 9.89309 46.6658 9.74306 47.4746C9.59303 48.2835 9.61034 49.1127 9.79402 49.9151C9.87191 50.2781 9.98803 50.6326 10.1406 50.9731L22.6667 48.3104Z" fill="#FFC1C1"/>
<path d="M193.021 81.6538C193.276 81.7546 193.549 81.806 193.825 81.8049C194.101 81.8038 194.374 81.7504 194.628 81.6476C194.882 81.5449 195.113 81.3949 195.307 81.2062C195.5 81.0176 195.653 80.794 195.756 80.5483V80.5483C195.965 80.0549 195.96 79.5023 195.744 79.012C195.529 78.5216 195.119 78.1336 194.605 77.9331L189.976 76.1144C189.461 75.9141 188.883 75.918 188.371 76.1251C187.858 76.3323 187.452 76.7259 187.241 77.2199V77.2199C187.136 77.4649 187.082 77.7274 187.083 77.9923C187.084 78.2572 187.14 78.5193 187.247 78.7634C187.354 79.0076 187.51 79.2291 187.707 79.415C187.903 79.601 188.136 79.7478 188.392 79.847L193.021 81.6538Z" fill="#8EA8DD"/>
<path d="M169.949 90.9978C169.737 91.4918 169.331 91.8854 168.819 92.0926C168.306 92.2997 167.729 92.3036 167.213 92.1033V92.1033C166.958 92.0041 166.725 91.8573 166.528 91.6713C166.332 91.4854 166.176 91.2639 166.069 91.0197C165.962 90.7756 165.906 90.5135 165.905 90.2486C165.904 89.9837 165.957 89.7212 166.062 89.4762L167.944 85.0304C168.155 84.5364 168.561 84.1428 169.074 83.9356C169.586 83.7285 170.164 83.7246 170.679 83.9249V83.9249C170.935 84.0241 171.168 84.1709 171.364 84.3569C171.561 84.5428 171.717 84.7642 171.824 85.0084C171.931 85.2526 171.986 85.5147 171.988 85.7796C171.989 86.0445 171.935 86.307 171.83 86.5519L169.949 90.9978Z" fill="#8EA8DD"/>
<path d="M175.333 47.3351C175.541 46.3046 175.429 45.238 175.011 44.2682C173.426 40.702 167.733 39.5133 162.299 41.7005C156.865 43.8878 153.758 48.6189 155.343 52.2326C155.738 53.1228 156.38 53.8916 157.199 54.4555L158.276 53.0409C157.731 52.6625 157.303 52.1489 157.038 51.555C155.863 48.8804 158.61 45.1003 163.029 43.3172C167.448 41.5341 172.164 42.283 173.34 44.9576C173.622 45.6117 173.695 46.3318 173.55 47.026L175.333 47.3351Z" fill="#A4B8EA"/>
<path d="M156.06 53.6406L151.177 60.4713L156.708 64.1177L161.591 57.2871L156.06 53.6406Z" fill="#FE958E"/>
<path d="M159.427 53.6231C159.141 53.3779 158.835 53.1552 158.511 52.9574C157.743 52.4903 156.882 52.1825 155.982 52.0539C155.083 51.9253 154.166 51.9787 153.289 52.2105C152.413 52.4424 151.596 52.8477 150.893 53.4004C150.189 53.9531 149.613 54.641 149.202 55.42C148.791 56.1989 148.555 57.0517 148.507 57.9237C148.46 58.7957 148.603 59.6675 148.927 60.4833C149.251 61.2991 149.749 62.0408 150.389 62.6609C151.03 63.2809 151.797 63.7656 152.644 64.0838L159.427 53.6231Z" fill="#425AC2"/>
<path d="M176.716 43.7025L175.575 50.0809L184.116 51.4895L185.257 45.111L176.716 43.7025Z" fill="#FE958E"/>
<path d="M181.611 87.0013C191.767 83.0665 196.679 71.9699 192.582 62.2164C188.485 52.4628 176.93 47.7457 166.774 51.6805C156.618 55.6152 151.707 66.7118 155.804 76.4654C159.901 86.219 171.455 90.9361 181.611 87.0013Z" fill="#425AC2"/>
<path d="M159.007 75.4717C160.274 78.3572 162.404 80.817 165.126 82.5402C167.849 84.2634 171.043 85.1726 174.303 85.1528C177.564 85.133 180.745 84.1851 183.445 82.4289C186.144 80.6728 188.241 78.1873 189.47 75.2867C190.699 72.3861 191.005 69.2006 190.349 66.1332C189.693 63.0657 188.104 60.254 185.784 58.0536C183.464 55.8531 180.517 54.3627 177.315 53.7708C174.113 53.179 170.8 53.5123 167.796 54.7285C165.8 55.5362 163.99 56.7135 162.468 58.1931C160.947 59.6727 159.744 61.4257 158.928 63.3519C158.111 65.2782 157.699 67.3399 157.712 69.4195C157.726 71.499 158.166 73.5556 159.007 75.4717V75.4717Z" fill="#FEE2E3"/>
<path d="M168.067 56.8454C168.13 56.9871 168.248 57.0997 168.396 57.1596C168.544 57.2194 168.71 57.2219 168.859 57.1664C168.933 57.1367 169 57.0933 169.057 57.0388C169.113 56.9842 169.158 56.9194 169.189 56.8482C169.219 56.777 169.235 56.7008 169.234 56.6238C169.234 56.5468 169.218 56.4707 169.187 56.3996C169.156 56.3286 169.111 56.2641 169.054 56.2098C168.998 56.1556 168.93 56.1126 168.856 56.0833C168.782 56.0541 168.703 56.0391 168.622 56.0394C168.542 56.0396 168.463 56.0549 168.389 56.0846C168.242 56.1449 168.125 56.2587 168.065 56.4013C168.004 56.5438 168.005 56.7035 168.067 56.8454Z" fill="#425AC2"/>
<path d="M175.407 55.5735C175.397 55.6501 175.402 55.7279 175.423 55.8024C175.445 55.8769 175.481 55.9466 175.531 56.0074C175.58 56.0683 175.642 56.119 175.712 56.1568C175.782 56.1945 175.859 56.2185 175.939 56.2273C176.02 56.2408 176.103 56.2385 176.182 56.2205C176.262 56.2024 176.337 56.169 176.403 56.1224C176.469 56.0757 176.524 56.0168 176.566 55.949C176.607 55.8812 176.634 55.8061 176.645 55.7281C176.655 55.6515 176.649 55.5737 176.628 55.4992C176.607 55.4247 176.571 55.355 176.521 55.2942C176.472 55.2334 176.41 55.1826 176.34 55.1448C176.27 55.1071 176.192 55.0831 176.112 55.0743C176.032 55.059 175.948 55.06 175.868 55.0773C175.787 55.0946 175.712 55.1278 175.645 55.1748C175.579 55.2217 175.523 55.2814 175.482 55.3501C175.441 55.4187 175.416 55.4948 175.407 55.5735Z" fill="#425AC2"/>
<path d="M182.376 57.986C182.279 58.1105 182.237 58.2669 182.261 58.4207C182.284 58.5745 182.37 58.7132 182.499 58.8062C182.629 58.8992 182.792 58.9389 182.952 58.9166C183.112 58.8943 183.257 58.8119 183.354 58.6873C183.45 58.5628 183.492 58.4064 183.469 58.2526C183.445 58.0988 183.359 57.9601 183.23 57.8671C183.166 57.821 183.093 57.7876 183.015 57.7686C182.937 57.7497 182.856 57.7456 182.777 57.7567C182.617 57.779 182.473 57.8614 182.376 57.986V57.986Z" fill="#425AC2"/>
<path d="M187.19 63.4314C187.041 63.4913 186.922 63.6058 186.861 63.7495C186.799 63.8933 186.8 64.0547 186.862 64.1981C186.924 64.3416 187.043 64.4554 187.193 64.5144C187.343 64.5735 187.511 64.5731 187.66 64.5132C187.734 64.4846 187.802 64.442 187.858 64.3879C187.915 64.3339 187.959 64.2694 187.989 64.1984C188.019 64.1274 188.034 64.0513 188.033 63.9747C188.032 63.898 188.014 63.8224 187.982 63.7524C187.952 63.6812 187.908 63.6164 187.852 63.5618C187.796 63.5071 187.729 63.4636 187.656 63.4338C187.582 63.404 187.503 63.3884 187.423 63.388C187.343 63.3876 187.264 63.4024 187.19 63.4314Z" fill="#425AC2"/>
<path d="M188.515 70.4554C188.435 70.4454 188.354 70.4508 188.276 70.4711C188.199 70.4915 188.126 70.5265 188.063 70.5741C187.999 70.6216 187.947 70.6808 187.907 70.7482C187.868 70.8156 187.843 70.8898 187.834 70.9665C187.816 71.1206 187.862 71.2752 187.961 71.3974C188.061 71.5195 188.206 71.5995 188.366 71.6203C188.525 71.637 188.685 71.5927 188.81 71.497C188.935 71.4012 189.016 71.2618 189.034 71.1092C189.056 70.9563 189.013 70.8016 188.915 70.6791C188.818 70.5565 188.674 70.4761 188.515 70.4554V70.4554Z" fill="#425AC2"/>
<path d="M186.002 77.1847C185.939 77.1327 185.866 77.0936 185.787 77.0699C185.708 77.0461 185.624 77.0382 185.542 77.0467C185.459 77.0551 185.38 77.0797 185.307 77.1189C185.235 77.158 185.172 77.211 185.122 77.2745C185.072 77.338 185.036 77.4107 185.017 77.488C184.997 77.5654 184.994 77.6458 185.008 77.7242C185.022 77.8027 185.053 77.8776 185.098 77.9443C185.143 78.011 185.202 78.068 185.272 78.1119C185.401 78.204 185.562 78.2444 185.721 78.2245C185.881 78.2045 186.026 78.1257 186.126 78.0049C186.174 77.9434 186.209 77.8733 186.229 77.7986C186.249 77.724 186.254 77.6463 186.242 77.57C186.231 77.4937 186.203 77.4203 186.162 77.3542C186.121 77.288 186.066 77.2304 186.002 77.1847Z" fill="#425AC2"/>
<path d="M180.358 81.7966C180.293 81.6542 180.172 81.5421 180.022 81.4843C179.871 81.4265 179.703 81.4277 179.554 81.4875C179.407 81.5478 179.29 81.6617 179.23 81.8042C179.169 81.9467 179.17 82.1064 179.232 82.2483C179.297 82.3907 179.418 82.5028 179.569 82.5606C179.719 82.6184 179.887 82.6173 180.037 82.5574C180.184 82.4971 180.301 82.3833 180.361 82.2407C180.421 82.0982 180.42 81.9385 180.358 81.7966V81.7966Z" fill="#425AC2"/>
<path d="M173.019 83.0682C173.033 82.9541 173.011 82.8387 172.956 82.7365C172.902 82.6343 172.817 82.5498 172.713 82.4936C172.609 82.4375 172.489 82.4122 172.37 82.421C172.251 82.4298 172.137 82.4722 172.043 82.5429C171.949 82.6136 171.878 82.7095 171.841 82.8185C171.803 82.9275 171.8 83.0448 171.831 83.1555C171.863 83.2663 171.928 83.3656 172.018 83.441C172.108 83.5164 172.22 83.5646 172.338 83.5794C172.499 83.5963 172.66 83.5523 172.787 83.4568C172.914 83.3613 172.997 83.2219 173.019 83.0682Z" fill="#425AC2"/>
<path d="M166.012 80.6901C166.061 80.6294 166.097 80.5599 166.118 80.4857C166.139 80.4115 166.145 80.334 166.135 80.2577C166.124 80.1815 166.098 80.108 166.058 80.0414C166.018 79.9748 165.965 79.9165 165.901 79.8699C165.837 79.8239 165.764 79.7904 165.686 79.7715C165.608 79.7525 165.528 79.7484 165.448 79.7595C165.288 79.7818 165.144 79.8643 165.047 79.9888C164.95 80.1133 164.909 80.2697 164.932 80.4235C164.955 80.5773 165.041 80.716 165.171 80.809C165.234 80.8552 165.306 80.8888 165.382 80.9079C165.459 80.9269 165.539 80.9311 165.618 80.92C165.696 80.9089 165.771 80.8828 165.839 80.8434C165.907 80.8039 165.966 80.7518 166.012 80.6901Z" fill="#425AC2"/>
<path d="M161.21 75.2114C161.284 75.1828 161.351 75.1402 161.408 75.0862C161.464 75.0321 161.509 74.9676 161.539 74.8966C161.569 74.8256 161.584 74.7495 161.583 74.6729C161.581 74.5963 161.564 74.5207 161.532 74.4506C161.505 74.3743 161.463 74.3041 161.407 74.2444C161.351 74.1846 161.283 74.1367 161.206 74.1035C161.13 74.0703 161.048 74.0527 160.964 74.0516C160.88 74.0506 160.797 74.0662 160.72 74.0974C160.643 74.1287 160.573 74.1749 160.516 74.2333C160.458 74.2916 160.414 74.3607 160.385 74.4363C160.357 74.5119 160.345 74.5923 160.351 74.6725C160.356 74.7527 160.379 74.831 160.418 74.9023C160.447 74.9734 160.492 75.0381 160.548 75.0924C160.604 75.1467 160.671 75.1896 160.745 75.2184C160.819 75.2472 160.899 75.2615 160.978 75.2603C161.058 75.2591 161.137 75.2425 161.21 75.2114V75.2114Z" fill="#425AC2"/>
<path d="M159.886 68.1861C159.966 68.196 160.047 68.1906 160.124 68.1703C160.202 68.1499 160.274 68.1149 160.338 68.0673C160.401 68.0198 160.454 67.9606 160.493 67.8932C160.532 67.8258 160.557 67.7516 160.567 67.6749C160.576 67.5968 160.57 67.5177 160.548 67.442C160.526 67.3663 160.488 67.2955 160.438 67.2337C160.387 67.1719 160.325 67.1203 160.253 67.0818C160.182 67.0432 160.103 67.0186 160.022 67.0092C159.941 66.9998 159.858 67.0059 159.78 67.0272C159.701 67.0484 159.627 67.0843 159.563 67.1329C159.498 67.1814 159.444 67.2417 159.404 67.3102C159.364 67.3788 159.339 67.4542 159.329 67.5322C159.319 67.6107 159.325 67.6903 159.348 67.7662C159.37 67.8421 159.409 67.9129 159.461 67.974C159.513 68.0352 159.578 68.0855 159.651 68.122C159.724 68.1584 159.804 68.1802 159.886 68.1861Z" fill="#425AC2"/>
<path d="M162.398 61.4696C162.495 61.5378 162.61 61.5771 162.729 61.5826C162.849 61.5881 162.967 61.5595 163.07 61.5005C163.173 61.4414 163.255 61.3546 163.306 61.2508C163.357 61.147 163.376 61.031 163.358 60.9173C163.341 60.8036 163.29 60.6972 163.21 60.6117C163.13 60.5262 163.025 60.4653 162.909 60.4367C162.794 60.4081 162.671 60.413 162.558 60.4509C162.446 60.4887 162.347 60.5578 162.275 60.6494C162.18 60.7747 162.14 60.9305 162.163 61.0837C162.186 61.2368 162.271 61.3753 162.398 61.4696V61.4696Z" fill="#425AC2"/>
<path d="M178.486 62.7355L173.689 68.3816L174.667 69.1481L179.464 63.502L178.486 62.7355Z" fill="#425AC2"/>
<path d="M162.571 67.5255L162.472 68.424L173.821 69.5753L173.92 68.6768L162.571 67.5255Z" fill="#425AC2"/>
<path d="M171.533 70.3962C171.744 70.9125 172.11 71.3566 172.585 71.6717C173.06 71.9867 173.622 72.1583 174.199 72.1644C174.776 72.1705 175.342 72.0108 175.824 71.7058C176.306 71.4009 176.682 70.9645 176.904 70.4528C177.126 69.9411 177.184 69.3773 177.07 68.8339C176.956 68.2904 176.676 67.7921 176.265 67.4028C175.854 67.0134 175.331 66.7509 174.764 66.6488C174.197 66.5468 173.61 66.6099 173.081 66.8301C172.392 67.1162 171.846 67.6479 171.557 68.3131C171.269 68.9783 171.26 69.7251 171.533 70.3962Z" fill="#FE958E"/>
<path d="M173.241 48.3104C173.254 47.946 173.304 47.5837 173.389 47.2286C173.76 45.6082 174.786 44.1956 176.242 43.3016C177.697 42.4077 179.463 42.1056 181.15 42.4619C182.838 42.8181 184.308 43.8035 185.239 45.2013C186.17 46.599 186.485 48.2947 186.114 49.9151C186.03 50.2767 185.914 50.6307 185.767 50.9731L173.241 48.3104Z" fill="#425AC2"/>
<path d="M116.663 165.434H78.0815L79.1089 244.591H86.4736C86.4736 244.591 92.0559 204.769 94.1477 182.778H99.2597L100.794 244.591H108.221C108.221 244.591 116.885 182.504 116.675 170.534C116.768 168.835 116.764 167.133 116.663 165.434V165.434Z" fill="#A4B8EA"/>
<path d="M116.664 165.435H78.0825L73.2553 116.21C72.8344 112.204 76.8695 108.757 82.0063 108.757H112.727C117.864 108.757 121.912 112.204 121.478 116.21L116.664 165.435Z" fill="#0E24A5"/>
<path d="M95.5341 117.815C95.6474 118.095 95.8432 118.338 96.0976 118.512C96.352 118.687 96.654 118.787 96.9666 118.8C97.2792 118.812 97.5888 118.737 97.8576 118.583C98.1264 118.43 98.3427 118.204 98.48 117.934C100.2 114.558 103.976 109.506 103.976 108.424V101.161C103.976 99.5088 101.413 99.6515 99.9034 99.6515H94.9524C93.4423 99.6515 90.8801 100.983 90.8801 102.635V108.424C90.9296 109.494 94.1726 114.439 95.5341 117.815Z" fill="#E98896"/>
<path d="M91.9702 104.156C97.0698 108.673 101.55 107.211 105.066 101.469C109.237 94.646 110.66 87.2045 105.561 82.7349C104.438 81.6613 103.097 80.8216 101.621 80.2682C100.145 79.7149 98.5658 79.4598 96.9825 79.5189C95.3992 79.578 93.8457 79.9501 92.4189 80.6119C90.9921 81.2736 89.7228 82.2108 88.6901 83.365C83.999 88.2625 86.8706 99.7099 91.9702 104.156Z" fill="#FFA6AD"/>
<path d="M89.3203 121.631L61.7182 132.543C60.4541 133.041 59.0637 133.163 57.7266 132.894C56.3896 132.625 55.1672 131.977 54.2174 131.034L29.4622 106.546L34.2647 101.316L58.3268 118.873C58.3268 118.873 72.7838 110.552 78.5765 109.09C81.1634 108.448 87.5874 115.129 87.5874 115.129L89.3203 121.631Z" fill="#0E24A5"/>
<path d="M78.9973 244.484H86.4982V250H71.2985C70.2959 250 69.9493 247.837 70.8281 247.373L78.9973 244.484Z" fill="#112256"/>
<path d="M108.32 244.484H100.831V250H115.994C116.996 250 117.343 247.837 116.464 247.373L108.32 244.484Z" fill="#112256"/>
<mask id="mask0_22_3750" style="mask-type:alpha" maskUnits="userSpaceOnUse" x="78" y="165" width="39" height="80">
<path d="M116.663 165.435H78.0818L79.1092 244.592H86.4738C86.4738 244.592 92.0561 204.77 94.1479 182.779H99.2599L100.795 244.592H108.221C108.221 244.592 116.886 182.505 116.675 170.535C116.768 168.836 116.764 167.134 116.663 165.435V165.435Z" fill="#A4B8EA"/>
</mask>
<g mask="url(#mask0_22_3750)">
<path d="M82.5624 156.948H80.978V253.068H82.5624V156.948Z" fill="#03053F"/>
<path d="M86.919 156.948H85.3347V253.068H86.919V156.948Z" fill="#03053F"/>
<path d="M91.2762 156.948H89.6919V253.068H91.2762V156.948Z" fill="#03053F"/>
<path d="M95.6451 156.948H94.0608V253.068H95.6451V156.948Z" fill="#03053F"/>
<path d="M100.002 156.948H98.418V253.068H100.002V156.948Z" fill="#03053F"/>
<path d="M104.359 156.948H102.775V253.068H104.359V156.948Z" fill="#03053F"/>
<path d="M108.729 156.948H107.144V253.068H108.729V156.948Z" fill="#03053F"/>
<path d="M113.085 156.948H111.501V253.068H113.085V156.948Z" fill="#03053F"/>
</g>
<path d="M116.688 165.434H78.0696V168.061H116.688V165.434Z" fill="#FFC1C1"/>
<path d="M34.3024 101.314C34.3024 101.314 35.6268 95.3706 34.1291 95.3706C32.6314 95.3706 32.1363 98.8773 31.4926 99.0675C30.0568 99.4954 28.1259 97.5341 25.9722 95.7866C23.8185 94.0392 20.2661 94.3007 20.4147 96.1076C20.687 99.6024 29.4998 106.58 29.4998 106.58L34.3024 101.314Z" fill="#E98896"/>
<path d="M105.052 121.631L132.654 132.543C133.918 133.041 135.309 133.163 136.646 132.894C137.983 132.625 139.205 131.977 140.155 131.034L164.91 106.546L160.108 101.316L136.046 118.873C136.046 118.873 121.589 110.552 115.808 109.09C113.209 108.448 106.797 115.129 106.797 115.129L105.052 121.631Z" fill="#0E24A5"/>
<path d="M160.071 101.314C160.071 101.314 158.759 95.3706 160.244 95.3706C161.729 95.3706 162.237 98.8773 162.893 99.0675C164.316 99.4954 166.247 97.5341 168.401 95.7866C170.554 94.0392 174.107 94.3007 173.971 96.1076C173.686 99.6024 164.873 106.58 164.873 106.58L160.071 101.314Z" fill="#E98896"/>
<path d="M47.4968 164.484C47.4968 165.424 47.7872 166.344 48.3312 167.126C48.8752 167.907 49.6485 168.517 50.5532 168.877C51.4579 169.237 52.4534 169.331 53.4138 169.147C54.3742 168.964 55.2564 168.511 55.9488 167.846C56.6412 167.181 57.1127 166.334 57.3038 165.411C57.4948 164.489 57.3968 163.533 57.022 162.664C56.6473 161.795 56.0127 161.053 55.1985 160.53C54.3843 160.008 53.4271 159.729 52.4479 159.729C51.1348 159.729 49.8755 160.23 48.9469 161.122C48.0184 162.013 47.4968 163.223 47.4968 164.484V164.484ZM49.2792 164.484C49.2768 163.872 49.4634 163.273 49.8155 162.764C50.1676 162.254 50.6694 161.856 51.2573 161.62C51.8451 161.384 52.4925 161.321 53.1176 161.439C53.7427 161.557 54.3173 161.851 54.7686 162.282C55.2199 162.714 55.5276 163.265 55.6528 163.865C55.778 164.464 55.715 165.087 55.4718 165.652C55.2285 166.217 54.8161 166.701 54.2866 167.041C53.7571 167.381 53.1344 167.563 52.4974 167.563C51.646 167.563 50.8293 167.239 50.2261 166.662C49.623 166.085 49.2825 165.301 49.2792 164.484V164.484Z" fill="#FE958E"/>
<path d="M53.6734 155.461H37.1245L40.2808 172.864H50.5171L53.6734 155.461Z" fill="#FE958E"/>
<path d="M131.466 169.333H167.621L172.572 147.841H136.429L131.466 169.333Z" fill="#BBBBBB"/>
<path d="M167.647 169.191H122.617V172.852H167.647V169.191Z" fill="#BBBBBB"/>
<path d="M150.355 159.147C150.355 159.598 150.494 160.039 150.755 160.415C151.017 160.79 151.388 161.083 151.822 161.255C152.256 161.428 152.734 161.473 153.195 161.385C153.656 161.297 154.079 161.08 154.412 160.761C154.744 160.441 154.97 160.035 155.062 159.592C155.154 159.149 155.107 158.69 154.927 158.273C154.747 157.856 154.442 157.5 154.052 157.249C153.661 156.998 153.201 156.864 152.731 156.864C152.419 156.864 152.11 156.923 151.822 157.038C151.534 157.153 151.272 157.321 151.051 157.533C150.83 157.745 150.655 157.996 150.536 158.273C150.416 158.55 150.355 158.847 150.355 159.147V159.147Z" fill="#4E687F"/>
<path d="M91.9702 104.156C97.0698 108.673 101.55 107.211 105.066 101.469C109.237 94.646 110.66 87.2045 105.561 82.7349C104.438 81.6613 103.097 80.8216 101.621 80.2682C100.145 79.7149 98.5658 79.4598 96.9825 79.5189C95.3992 79.578 93.8457 79.9501 92.4189 80.6119C90.9921 81.2736 89.7228 82.2108 88.6901 83.365C83.999 88.2625 86.8706 99.7099 91.9702 104.156Z" fill="#E98896"/>
<path d="M86.6229 99.9599C85.6327 97.416 85.8555 91.8885 88.8633 92.4234C91.0912 92.8157 89.0242 95.7518 91.0046 96.0728C92.985 96.3937 88.9376 87.2643 93.9876 84.9582C98.7901 82.7591 103.89 84.0785 104.236 89.7131C104.533 94.7889 102.578 96.6909 104.236 96.6909C105.895 96.6909 104.236 93.1961 107.207 93.517C110.178 93.838 110.19 100.828 111.836 100.828C113.482 100.828 112.505 78.5985 112.505 78.5985L88.69 74.7471L82.4146 87.4545L86.6229 99.9599Z" fill="#425AC2"/>
</svg>
