<svg width="200" height="250" viewBox="0 0 200 250" fill="none" xmlns="http://www.w3.org/2000/svg">
<path d="M161.296 171.601H160.787V230.896H161.296V171.601Z" fill="#231F20"/>
<path d="M171.94 72.2927H171.432V222.024H171.94V72.2927Z" fill="#231F20"/>
<path d="M166.623 120.601H166.115V230.895H166.623V120.601Z" fill="#231F20"/>
<path d="M182.597 99.6331H182.088V213.476H182.597V99.6331Z" fill="#231F20"/>
<path d="M177.268 70.045H176.759V223.768H177.268V70.045Z" fill="#231F20"/>
<path d="M183.622 234.557C190.289 226.028 190.289 212.199 183.622 203.67C176.955 195.141 166.146 195.141 159.48 203.67C152.813 212.199 152.813 226.028 159.48 234.557C166.146 243.086 176.955 243.086 183.622 234.557Z" fill="#CCCCCC"/>
<path d="M160.67 195.377H182.446C183.601 195.377 184.549 196.989 184.549 198.971V204.604C184.549 206.586 183.601 208.198 182.446 208.198H160.67C159.514 208.198 158.567 206.586 158.567 204.604V198.971C158.567 196.989 159.514 195.377 160.67 195.377Z" fill="#CCCCCC"/>
<path d="M186.018 203.229H154.141V203.88H186.018V203.229Z" fill="#425AC2"/>
<path d="M166.507 68.4626C165.997 71.2676 165.337 74.0244 164.531 76.7136L165.363 74.2146L165.155 74.8209C164.112 77.2848 163.819 80.156 164.334 82.8797C164.618 84.2039 165.103 85.4436 165.761 86.5277C166.42 87.6118 167.239 88.5192 168.172 89.1977C169.105 89.8762 170.133 90.3126 171.198 90.4819C172.263 90.6512 173.344 90.5501 174.378 90.1844C175.407 89.8535 176.371 89.2564 177.212 88.4298C178.053 87.6032 178.753 86.5648 179.267 85.3787C180.505 81.7121 181.509 77.9244 182.272 74.052C182.558 72.7277 182.636 71.3444 182.504 69.9812C182.371 68.618 182.03 67.3015 181.5 66.1069C180.97 64.9123 180.261 63.863 179.414 63.019C178.567 62.1749 177.598 61.5526 176.563 61.1875C174.472 60.4502 172.238 60.8056 170.353 62.1755C168.467 63.5454 167.084 65.8176 166.507 68.4922V68.4626Z" fill="#FFC1C1"/>
<path d="M140.722 166.765C142.408 172.618 145.299 177.778 149.09 181.7C152.476 185.426 158.14 183.341 160.463 179.023C163.179 173.952 161.734 168.185 158.359 164.473C160.151 166.44 158.279 164.222 157.932 163.704C157.585 163.187 156.175 160.451 157.365 162.847C156.556 161.195 155.908 159.422 155.435 157.568C154.014 152.156 148.131 150.485 144.501 152.733C140.121 155.439 139.3 161.309 140.722 166.706V166.765Z" fill="#FFC1C1"/>
<path d="M158.81 126.604C158.68 130.322 158.293 134.019 157.655 137.65C156.958 142.272 156.883 147.013 157.435 151.668C158.105 157.302 162.948 160.865 167.121 159.727C169.225 159.116 171.062 157.481 172.24 155.168C173.418 152.855 173.845 150.045 173.431 147.335C173.281 146.019 173.258 145.857 173.339 146.729C173.339 145.99 173.339 145.25 173.339 144.481C173.443 142.614 173.64 140.757 173.928 138.922C174.555 135.288 174.942 131.593 175.084 127.876C175.186 125.116 174.443 122.415 173.012 120.346C171.58 118.278 169.575 117.006 167.421 116.801C163.156 116.475 158.811 120.896 158.764 126.604H158.81Z" fill="#FFC1C1"/>
<path d="M180.689 105.696C181.232 107.174 181.775 108.52 182.295 109.954C182.515 110.575 182.735 111.211 182.943 111.832C181.96 108.964 182.943 111.832 183.128 112.483C183.754 115.076 185.087 117.295 186.884 118.738C187.827 119.439 188.87 119.892 189.951 120.073C191.033 120.253 192.131 120.156 193.183 119.787C197.147 118.398 200.522 112.246 198.893 106.923C197.668 102.916 196.315 98.9825 194.801 95.0936C192.802 89.9921 187.277 88.5874 183.613 91.3377C179.591 94.2951 178.678 100.55 180.689 105.651V105.696Z" fill="#FFC1C1"/>
<path d="M184.77 134.752C184.192 135.905 183.614 137.029 182.92 138.109L184.203 135.994C183.741 136.743 183.267 137.483 182.782 138.212C181.291 140.208 180.438 142.845 180.389 145.605C180.389 148.379 181.25 151.04 182.782 153.003C184.314 154.966 186.393 156.071 188.561 156.075C189.637 156.091 190.704 155.827 191.698 155.298C192.692 154.77 193.59 153.987 194.34 152.999C195.99 150.573 197.508 148.003 198.882 145.31C199.976 142.916 200.283 140.063 199.733 137.38C199.184 134.697 197.824 132.404 195.952 131.004C194.081 129.604 191.851 129.212 189.754 129.915C187.657 130.618 185.864 132.358 184.77 134.752V134.752Z" fill="#FFC1C1"/>
<path d="M178.32 184.835C180.236 184.884 182.151 184.665 184.03 184.184L181.857 184.554C182.73 184.399 183.611 184.34 184.492 184.377C188.953 184.672 192.675 179.408 192.675 173.922C192.642 171.16 191.769 168.523 190.241 166.572C188.713 164.62 186.651 163.506 184.492 163.468C182.583 163.477 180.679 163.714 178.805 164.178L180.978 163.794C180.098 163.957 179.207 164.001 178.32 163.927C173.87 163.498 170.149 169.013 170.149 174.381C170.149 180.414 173.882 184.421 178.32 184.835V184.835Z" fill="#FFC1C1"/>
<path d="M148.327 94.0147C148.329 94.2463 148.278 94.4736 148.179 94.6677C148.08 94.8617 147.938 95.0137 147.771 95.1044C147.605 95.1951 147.421 95.2204 147.243 95.177C147.065 95.1336 146.901 95.0235 146.772 94.8607C146.644 94.698 146.555 94.4899 146.519 94.2629C146.483 94.0359 146.5 93.8002 146.569 93.5859C146.638 93.3716 146.755 93.1883 146.905 93.0593C147.056 92.9302 147.233 92.8613 147.414 92.8613C147.654 92.8613 147.885 92.9824 148.055 93.1982C148.226 93.4141 148.324 93.7074 148.327 94.0147Z" fill="white"/>
<path d="M172.484 80.6623C172.484 80.8933 172.43 81.1192 172.33 81.3113C172.229 81.5034 172.087 81.6531 171.92 81.7415C171.753 81.8299 171.57 81.853 171.392 81.808C171.215 81.7629 171.053 81.6517 170.925 81.4883C170.797 81.3249 170.71 81.1168 170.675 80.8902C170.64 80.6636 170.658 80.4287 170.727 80.2152C170.796 80.0018 170.913 79.8193 171.063 79.691C171.213 79.5626 171.39 79.4941 171.571 79.4941C171.691 79.4921 171.81 79.521 171.922 79.579C172.033 79.637 172.135 79.723 172.22 79.8318C172.305 79.9407 172.372 80.0703 172.417 80.2129C172.463 80.3555 172.485 80.5083 172.484 80.6623V80.6623Z" fill="white"/>
<path d="M184.203 101.571C184.198 101.801 184.14 102.025 184.036 102.214C183.932 102.403 183.786 102.548 183.618 102.631C183.449 102.714 183.265 102.731 183.089 102.68C182.913 102.629 182.753 102.513 182.628 102.345C182.504 102.178 182.421 101.967 182.39 101.74C182.36 101.512 182.382 101.278 182.456 101.067C182.529 100.855 182.649 100.677 182.802 100.553C182.955 100.43 183.132 100.367 183.313 100.373C183.433 100.377 183.551 100.411 183.661 100.473C183.77 100.535 183.869 100.625 183.952 100.736C184.035 100.847 184.099 100.978 184.142 101.121C184.185 101.264 184.206 101.417 184.203 101.571V101.571Z" fill="white"/>
<path d="M172.332 132.904C172.335 133.136 172.283 133.364 172.183 133.558C172.084 133.753 171.941 133.905 171.774 133.995C171.607 134.085 171.422 134.109 171.244 134.065C171.066 134.02 170.902 133.909 170.774 133.744C170.645 133.58 170.558 133.371 170.523 133.143C170.488 132.915 170.508 132.679 170.578 132.465C170.649 132.251 170.767 132.068 170.919 131.941C171.071 131.814 171.249 131.747 171.431 131.75C171.67 131.75 171.899 131.872 172.068 132.088C172.237 132.304 172.332 132.598 172.332 132.904V132.904Z" fill="white"/>
<path d="M193.461 143.047C193.463 143.28 193.411 143.507 193.312 143.702C193.212 143.896 193.07 144.048 192.902 144.138C192.735 144.229 192.551 144.253 192.372 144.208C192.194 144.164 192.03 144.052 191.902 143.888C191.774 143.724 191.687 143.514 191.652 143.286C191.617 143.058 191.636 142.822 191.706 142.608C191.777 142.394 191.896 142.212 192.048 142.085C192.2 141.957 192.378 141.891 192.559 141.894C192.798 141.894 193.028 142.015 193.197 142.232C193.366 142.448 193.461 142.741 193.461 143.047V143.047Z" fill="white"/>
<path d="M187.856 174.499C187.858 174.731 187.806 174.959 187.706 175.153C187.607 175.348 187.465 175.5 187.297 175.59C187.13 175.68 186.945 175.704 186.767 175.66C186.589 175.615 186.425 175.504 186.297 175.339C186.168 175.175 186.081 174.966 186.046 174.738C186.012 174.51 186.031 174.274 186.101 174.06C186.172 173.846 186.291 173.663 186.442 173.536C186.594 173.409 186.772 173.342 186.954 173.345C187.193 173.345 187.422 173.467 187.591 173.683C187.761 173.899 187.856 174.193 187.856 174.499V174.499Z" fill="white"/>
<path d="M150.731 168.392C150.763 168.616 150.741 168.847 150.67 169.056C150.599 169.265 150.481 169.442 150.331 169.565C150.181 169.688 150.006 169.752 149.828 169.748C149.65 169.744 149.477 169.672 149.331 169.543C149.184 169.413 149.071 169.231 149.006 169.019C148.94 168.807 148.925 168.576 148.962 168.353C149 168.13 149.088 167.926 149.215 167.768C149.343 167.609 149.505 167.502 149.68 167.46C149.915 167.408 150.158 167.477 150.354 167.651C150.551 167.825 150.686 168.091 150.731 168.392V168.392Z" fill="white"/>
<path d="M33.9264 105.282H31.2913V178.846H33.9264V105.282Z" fill="#CCCCCC"/>
<path d="M22.0557 111.98H19.4205V176.894H22.0557V111.98Z" fill="#CCCCCC"/>
<path d="M46.4552 116.667H43.8199V181.581H46.4552V116.667Z" fill="#CCCCCC"/>
<path d="M53.5866 174.513H13.1337C14.9388 178.734 17.5215 182.328 20.6579 184.983V241.172H46.0855V184.983C49.2134 182.324 51.788 178.731 53.5866 174.513V174.513Z" fill="#C4C4C4"/>
<path d="M65.6638 185.175H16.5424V185.825H65.6638V185.175Z" fill="#FFC1C1"/>
<path d="M49.078 77.7785C44.4548 65.121 29.8108 63.3318 23.3499 79.2572C17.8599 92.7575 4.85719 88.0109 1.15864 100.639C-5.44098 123.41 17.8715 132.149 27.742 120.32C34.5497 112.158 43.2297 117.008 50.858 124.756C63.1672 137.414 82.2841 110.413 70.1945 97.7554C60.7978 87.9222 54.7645 93.3785 49.078 77.7785Z" fill="#FFC1C1"/>
<path d="M15.5831 159.062C13.4333 161.369 16.1379 167.535 21.5354 166.263C26.933 164.991 29.7069 161.738 26.725 158.219C23.743 154.7 19.663 154.685 15.5831 159.062Z" fill="#FFC1C1"/>
<path d="M30.747 143.786C34.434 135.151 40.0742 142.396 43.5879 144.6C50.6383 149.036 51.794 143.224 55.5042 145.59C59.2143 147.956 57.6886 154.211 49.7252 155.941C42.7095 157.582 26.9444 152.614 30.747 143.786Z" fill="#FFC1C1"/>
<path d="M167.733 8.48798H43.7731C37.6706 8.48798 32.7236 14.8169 32.7236 22.6241V134.249C32.7236 142.057 37.6706 148.386 43.7731 148.386H167.733C173.835 148.386 178.782 142.057 178.782 134.249V22.6241C178.782 14.8169 173.835 8.48798 167.733 8.48798Z" fill="#A4B8EA"/>
<path d="M136.642 30.4905H44.0739V34.3498H136.642V30.4905Z" fill="white"/>
<path d="M136.642 61.1875H44.0739V65.0469H136.642V61.1875Z" fill="white"/>
<path d="M136.642 91.87H44.0739V95.7293H136.642V91.87Z" fill="white"/>
<path d="M136.642 122.553H44.0739V126.412H136.642V122.553Z" fill="white"/>
<path d="M156.279 23.0083H146.79C145.424 23.0083 144.317 24.425 144.317 26.1727V38.3126C144.317 40.0602 145.424 41.477 146.79 41.477H156.279C157.645 41.477 158.753 40.0602 158.753 38.3126V26.1727C158.753 24.425 157.645 23.0083 156.279 23.0083Z" fill="white"/>
<path d="M156.279 53.4692H146.79C145.424 53.4692 144.317 54.8859 144.317 56.6335V68.7735C144.317 70.5211 145.424 71.9378 146.79 71.9378H156.279C157.645 71.9378 158.753 70.5211 158.753 68.7735V56.6335C158.753 54.8859 157.645 53.4692 156.279 53.4692Z" fill="white"/>
<path d="M156.279 83.9445H146.79C145.424 83.9445 144.317 85.3613 144.317 87.1089V99.2488C144.317 100.996 145.424 102.413 146.79 102.413H156.279C157.645 102.413 158.753 100.996 158.753 99.2488V87.1089C158.753 85.3613 157.645 83.9445 156.279 83.9445Z" fill="white"/>
<path d="M156.279 114.42H146.79C145.424 114.42 144.317 115.837 144.317 117.584V129.724C144.317 131.472 145.424 132.888 146.79 132.888H156.279C157.645 132.888 158.753 131.472 158.753 129.724V117.584C158.753 115.837 157.645 114.42 156.279 114.42Z" fill="white"/>
<path d="M150.42 88.9048L143.734 97.4576L146.211 100.626L152.896 92.0729L150.42 88.9048Z" fill="#FE958E"/>
<path d="M145.275 105.075C146.824 104.513 149.471 101.304 149.055 99.7517C148.639 98.1991 147.668 93.837 145.391 95.3157L141.322 98.8941L143.31 105.74L145.275 105.075Z" fill="#FFB3B6"/>
<path d="M75.2455 145.147H107.908L111.468 193.633L107.03 234.415H93.981L99.3093 197.847C99.3093 197.847 94.9172 173.434 94.2931 164.695H89.9704L87.6588 198.498L76.5169 234.149H63.1096L74.7601 195.57C74.7601 195.57 75.2224 156.681 75.3033 150.914C75.2038 148.994 75.1845 147.069 75.2455 145.147V145.147Z" fill="#FFC1C1"/>
<path d="M75.2461 145.147H107.909L111.989 89.6521C112.347 85.1273 108.926 81.2384 104.58 81.2384H78.5748C74.2175 81.2384 70.8078 85.1273 71.1661 89.6521L75.2461 145.147Z" fill="#425AC2"/>
<path d="M91.7393 87.0649C85.9603 87.0649 85.9603 82.0226 85.9603 80.8248V72.6921C85.9603 70.829 88.1217 70.9916 89.4277 70.9916H93.577C94.8599 70.9916 97.0444 72.4703 97.0444 74.3482V80.884C97.0321 81.7433 96.8829 82.5903 96.6058 83.3732C96.3287 84.1561 95.9296 84.8583 95.433 85.437C94.9363 86.0157 94.3525 86.4585 93.7174 86.7384C93.0823 87.0183 92.4092 87.1294 91.7393 87.0649V87.0649Z" fill="#E98896"/>
<path d="M100.615 70.9765C98.9508 78.1776 94.2467 77.0834 88.618 74.9541C85.9831 73.8588 83.7864 71.4911 82.4954 68.355C81.2045 65.2189 80.9213 61.562 81.706 58.1627C82.4908 54.7635 84.2816 51.8903 86.6972 50.1547C89.1128 48.4192 91.9625 47.9583 94.6397 48.8702C100.268 50.9995 102.28 63.7753 100.615 70.9765Z" fill="#FFB3B6"/>
<path d="M112.139 87.863L120.843 110.043L141.115 98.3764C141.115 97.6519 145.912 103.833 145.172 105.504C144.016 108.21 129.962 118.812 122.53 126.323C118.369 130.523 108.175 113.237 107.597 111.995C106.661 110.014 105.401 97.7258 105.285 90.8795C105.256 90.1142 105.461 89.3643 105.855 88.7879C106.25 88.2114 106.804 87.8533 107.401 87.7891L109.331 83.3531C110.348 83.1608 111.769 86.5766 112.139 87.863Z" fill="#425AC2"/>
<path d="M73.8584 83.0572C73.8584 83.0572 58.7521 103.67 53.4354 110.161C50.4881 113.74 53.4354 116.431 55.1113 119.033C59.7345 126.427 74.8408 139.735 74.8408 139.735L74.0086 128.453L64.9125 114.849C64.9125 114.849 77.7072 102.206 78.1348 101.289C79.2906 98.8051 78.3197 87.8777 78.3197 87.8777L73.8584 83.0572Z" fill="#425AC2"/>
<path d="M103.829 234.311H97.4833V240.521H110.347C111.203 240.521 111.503 238.082 110.74 237.564L103.829 234.311Z" fill="#FE958E"/>
<path d="M73.6738 234.311H67.34V240.521H80.1925C81.0478 240.521 81.3483 238.082 80.597 237.564L73.6738 234.311Z" fill="#FE958E"/>
<path d="M109.839 97.223H109.33V127.521H109.839V97.223Z" fill="#FC6262"/>
<path d="M72.7777 98.6066L72.2701 98.6479L73.7561 128.531L74.2636 128.489L72.7777 98.6066Z" fill="#FC6262"/>
<path d="M150.407 88.8983L152.892 92.0774L153.898 88.7652L153.228 87.8188L150.407 88.8983Z" fill="#FEE2E3"/>
<path d="M153.262 87.8043L153.932 88.7655C153.932 88.7655 154.88 87.6121 154.51 87.1537C154.14 86.6953 153.262 87.8043 153.262 87.8043Z" fill="#0E24A5"/>
<mask id="mask0_22_3983" style="mask-type:alpha" maskUnits="userSpaceOnUse" x="63" y="145" width="49" height="90">
<path d="M75.2455 145.147H107.908L111.468 193.633L107.03 234.415H93.981L99.3093 197.847C99.3093 197.847 94.9172 173.434 94.2931 164.695H89.9704L87.6588 198.498L76.5169 234.149H63.1096L74.7601 195.57C74.7601 195.57 75.2224 156.681 75.3033 150.914C75.2038 148.994 75.1845 147.069 75.2455 145.147V145.147Z" fill="#FFC1C1"/>
</mask>
<g mask="url(#mask0_22_3983)">
<path d="M116.069 148.045H75.6157V149.524H116.069V148.045Z" fill="#03053F"/>
<path d="M116.022 153.635H57.0767V155.291H116.022V153.635Z" fill="#03053F"/>
<path d="M116.022 159.446H57.0767V161.102H116.022V159.446Z" fill="#03053F"/>
<path d="M116.022 165.257H57.0767V166.913H116.022V165.257Z" fill="#03053F"/>
<path d="M116.022 171.068H57.0767V172.725H116.022V171.068Z" fill="#03053F"/>
<path d="M116.022 176.88H57.0767V178.536H116.022V176.88Z" fill="#03053F"/>
<path d="M116.022 182.691H57.0767V184.347H116.022V182.691Z" fill="#03053F"/>
<path d="M116.022 188.502H57.0767V190.158H116.022V188.502Z" fill="#03053F"/>
<path d="M116.022 194.313H57.0767V195.969H116.022V194.313Z" fill="#03053F"/>
<path d="M116.022 200.125H57.0767V201.781H116.022V200.125Z" fill="#03053F"/>
<path d="M116.022 205.936H57.0767V207.592H116.022V205.936Z" fill="#03053F"/>
<path d="M116.022 211.747H57.0767V213.403H116.022V211.747Z" fill="#03053F"/>
<path d="M116.022 217.558H57.0767V219.214H116.022V217.558Z" fill="#03053F"/>
<path d="M116.022 223.369H57.0767V225.025H116.022V223.369Z" fill="#03053F"/>
<path d="M116.022 229.18H57.0767V230.837H116.022V229.18Z" fill="#03053F"/>
</g>
<path d="M91.7854 65.6976C93.5653 64.7217 90.6296 61.1433 92.9412 59.1027C96.2352 56.1454 99.0322 54.6667 99.7026 49.2695C100.454 43.3548 95.3106 39.5546 94.4669 39.5546C93.6231 39.5546 96.2352 41.2847 93.3111 43.8724C90.8954 46.046 80.3083 49.5948 79.7188 58.5704C79.1294 67.546 81.233 70.3998 83.9375 72.189C86.6421 73.9782 83.0938 68.5071 85.2898 65.047C87.4858 61.5869 90.6065 66.363 91.7854 65.6976Z" fill="#FE958E"/>
<path d="M147.037 28.9065L145.852 30.4226L151.434 37.5639L152.619 36.0478L147.037 28.9065Z" fill="#FE958E"/>
<path d="M155.93 28.9722L150.348 36.1135L151.533 37.6296L157.115 30.4883L155.93 28.9722Z" fill="#FE958E"/>
<path d="M147.044 59.2129L145.859 60.729L151.441 67.8703L152.626 66.3542L147.044 59.2129Z" fill="#FE958E"/>
<path d="M155.916 59.2685L150.334 66.4098L151.519 67.9259L157.101 60.7846L155.916 59.2685Z" fill="#FE958E"/>
<path d="M54.5459 17.2857C54.5308 18.0768 54.2745 18.829 53.8318 19.3815C53.3891 19.9341 52.795 20.2433 52.1765 20.2431V20.2431C51.5634 20.2431 50.9755 19.9315 50.5419 19.3769C50.1084 18.8223 49.8649 18.0701 49.8649 17.2857V3.03129C49.8571 2.63674 49.9113 2.24422 50.024 1.87684C50.1367 1.50946 50.3057 1.17466 50.5211 0.892162C50.7366 0.609668 50.994 0.385197 51.2783 0.231974C51.5626 0.0787512 51.868 -0.000123208 52.1765 1.44461e-07C52.8049 1.44461e-07 53.4075 0.31937 53.8519 0.887847C54.2962 1.45632 54.5459 2.22734 54.5459 3.03129V17.2857Z" fill="#425AC2"/>
<path d="M164.681 17.2857C164.667 18.0642 164.418 18.8055 163.988 19.3561C163.558 19.9067 162.978 20.2243 162.37 20.2431V20.2431C161.751 20.2433 161.157 19.9341 160.714 19.3815C160.272 18.829 160.015 18.0768 160 17.2857V3.03129C160 2.22734 160.25 1.45632 160.694 0.887847C161.139 0.31937 161.741 0 162.37 0V0C162.988 0.0193 163.576 0.34717 164.008 0.913568C164.44 1.47997 164.681 2.23999 164.681 3.03129V17.2857Z" fill="#425AC2"/>
</svg>
