<svg width="200" height="250" viewBox="0 0 200 250" fill="none" xmlns="http://www.w3.org/2000/svg">
<path d="M171.909 224.499C170.148 224.093 165.38 219.846 161.503 208.114C159.28 201.404 153.03 166.836 161.503 164.41C169.976 161.985 168.387 179.356 168.387 195.36C168.387 205.11 171.909 224.499 171.909 224.499Z" fill="#0E24A5"/>
<path d="M175.796 226.137C171.339 225.805 172.263 174.149 171.909 162.01C171.554 149.872 169.439 104.556 175.442 97.2679C181.445 89.9799 187.62 96.4554 188.146 105.885C188.404 110.354 187.072 142.818 186.385 152.125C185.697 161.432 184.795 182.471 184.086 195.816C183.378 209.161 181.09 226.519 175.796 226.137Z" fill="#0E24A5"/>
<path d="M184.087 226.728C184.087 226.728 193.978 204.359 196.448 187.075C200.861 156.113 201.742 125.976 195.739 126.37C189.736 126.764 189.296 157.147 189.038 170.074C188.329 203.657 181.446 224.697 181.446 224.697L184.087 226.728Z" fill="#0E24A5"/>
<path d="M183.239 225.792L182.831 225.62C182.831 225.509 186.353 214.429 188.651 207.018C193.173 192.454 193.924 173.09 193.935 172.893H194.365C194.365 173.09 193.613 192.516 189.06 207.153C186.761 214.602 183.271 225.681 183.239 225.792Z" fill="#FFC1C1"/>
<path d="M177.246 222.678H176.817C176.817 215.771 177.891 195.594 177.891 195.348H178.331C178.299 195.582 177.246 215.784 177.246 222.678Z" fill="#FFC1C1"/>
<path d="M170.213 224.291C167.938 217.839 165.991 211.242 164.381 204.532C163.097 198.551 162.559 192.392 162.781 186.238H163.222C162.992 192.338 163.524 198.444 164.8 204.372C166.405 211.06 168.345 217.636 170.61 224.069L170.213 224.291Z" fill="#FFC1C1"/>
<path d="M179.684 195.766C179.686 196.069 179.61 196.365 179.465 196.618C179.32 196.87 179.113 197.068 178.87 197.185C178.627 197.303 178.359 197.335 178.1 197.277C177.841 197.22 177.602 197.075 177.415 196.862C177.228 196.649 177.1 196.377 177.048 196.081C176.995 195.784 177.021 195.477 177.121 195.197C177.222 194.918 177.393 194.678 177.612 194.51C177.831 194.342 178.089 194.252 178.353 194.252C178.704 194.252 179.041 194.411 179.291 194.695C179.54 194.978 179.681 195.363 179.684 195.766Z" fill="#425AC2"/>
<path d="M164.327 186.459C164.329 186.762 164.253 187.059 164.107 187.312C163.962 187.565 163.754 187.762 163.51 187.879C163.266 187.997 162.998 188.028 162.738 187.969C162.479 187.911 162.241 187.765 162.054 187.551C161.867 187.337 161.74 187.064 161.689 186.766C161.638 186.469 161.665 186.161 161.767 185.882C161.869 185.602 162.042 185.364 162.262 185.197C162.483 185.03 162.742 184.943 163.006 184.945C163.18 184.945 163.351 184.984 163.512 185.06C163.672 185.136 163.817 185.248 163.94 185.389C164.063 185.529 164.16 185.696 164.226 185.88C164.293 186.063 164.327 186.26 164.327 186.459Z" fill="#425AC2"/>
<path d="M195.47 172.905C195.47 173.205 195.393 173.497 195.248 173.746C195.103 173.996 194.896 174.19 194.655 174.304C194.414 174.419 194.148 174.449 193.892 174.39C193.635 174.332 193.4 174.188 193.215 173.976C193.031 173.764 192.905 173.494 192.854 173.201C192.803 172.907 192.829 172.602 192.929 172.326C193.029 172.049 193.198 171.813 193.416 171.646C193.633 171.48 193.888 171.391 194.149 171.391C194.5 171.391 194.836 171.551 195.083 171.834C195.331 172.118 195.47 172.504 195.47 172.905Z" fill="#425AC2"/>
<path d="M91.0673 50.7698L83.6575 54.66C83.4464 54.7692 83.2141 54.8128 82.9837 54.7865C82.7533 54.7603 82.533 54.6651 82.3448 54.5105C82.1567 54.3559 82.0072 54.1473 81.9116 53.9056C81.8159 53.6639 81.7773 53.3977 81.7996 53.1335L82.5621 43.8512C82.583 43.5856 82.6648 43.3311 82.7991 43.1134C82.9334 42.8957 83.1154 42.7225 83.3268 42.6113C83.5382 42.5001 83.7715 42.4549 84.003 42.4803C84.2346 42.5056 84.4562 42.6005 84.6454 42.7555L91.282 48.16C91.4708 48.3139 91.6209 48.5221 91.7173 48.7637C91.8137 49.0052 91.853 49.2715 91.8312 49.5359C91.8095 49.8003 91.7274 50.0535 91.5933 50.2701C91.4592 50.4867 91.2778 50.659 91.0673 50.7698Z" fill="#425AC2"/>
<path d="M64.6494 63.9425L72.5317 71.1196C72.7582 71.3214 72.934 71.5885 73.0411 71.8936C73.1482 72.1987 73.1828 72.5309 73.1413 72.8564C73.0998 73.1818 72.9837 73.4888 72.8049 73.746C72.6262 74.0032 72.391 74.2014 72.1236 74.3204L62.7486 78.5677C62.4819 78.688 62.1923 78.7258 61.9089 78.6771C61.6254 78.6285 61.3582 78.4951 61.1339 78.2905C60.9097 78.0859 60.7364 77.8172 60.6315 77.5114C60.5267 77.2057 60.4939 76.8736 60.5364 76.5487L62.0183 65.1243C62.0614 64.7998 62.1782 64.4941 62.3569 64.2377C62.5356 63.9813 62.77 63.7833 63.0366 63.6636C63.3031 63.5439 63.5924 63.5066 63.8755 63.5555C64.1586 63.6045 64.4255 63.7379 64.6494 63.9425V63.9425Z" fill="#425AC2"/>
<path d="M75.3029 53.1952L76.0331 60.1508C76.0641 60.3532 76.0466 60.5613 75.9823 60.7531C75.9181 60.9449 75.8095 61.1131 75.6683 61.2395C75.5271 61.366 75.3585 61.4461 75.1806 61.4712C75.0027 61.4962 74.8223 61.4654 74.6585 61.3819L69.0313 58.6242C68.87 58.5469 68.7295 58.4219 68.6241 58.2619C68.5187 58.102 68.4523 57.9128 68.4315 57.7137C68.4108 57.5147 68.4365 57.3129 68.506 57.129C68.5756 56.9451 68.6864 56.7856 68.8273 56.6668L73.7242 52.4689C73.8604 52.3489 74.0214 52.2717 74.1915 52.2449C74.3617 52.218 74.5349 52.2425 74.6943 52.3158C74.8536 52.3891 74.9936 52.5088 75.1003 52.663C75.207 52.8172 75.2768 53.0006 75.3029 53.1952V53.1952Z" fill="#425AC2"/>
<path d="M86.31 72.7569L79.233 68.1403C79.0323 68.0074 78.8657 67.8162 78.7498 67.5861C78.634 67.356 78.573 67.0949 78.573 66.8292C78.573 66.5635 78.634 66.3025 78.7498 66.0724C78.8657 65.8422 79.0323 65.6511 79.233 65.5181L86.2563 60.8031C86.4554 60.6654 86.6829 60.591 86.9155 60.5875C87.1481 60.584 87.3772 60.6515 87.5795 60.7831C87.7818 60.9147 87.9498 61.1056 88.0664 61.3363C88.183 61.567 88.2439 61.8291 88.2429 62.0957L88.2966 71.4273C88.3 71.6955 88.2412 71.96 88.1261 72.1936C88.0111 72.4272 87.8439 72.6216 87.6418 72.7569C87.4397 72.8921 87.2099 72.9634 86.9759 72.9634C86.7419 72.9634 86.5121 72.8921 86.31 72.7569V72.7569Z" fill="#425AC2"/>
<path d="M80.4784 86.9146L79.5657 85.031C76.1829 78.0385 72.9827 71.4892 77.7615 62.4531C82.5403 53.4169 85.923 48.2341 85.9553 48.1725L86.3097 48.468C86.3097 48.5295 82.8947 53.774 78.1374 62.7116C73.4875 71.4522 76.6232 77.9277 79.9523 84.7971C80.2529 85.4127 80.5536 86.0405 80.8543 86.6807L80.4784 86.9146Z" fill="#0E24A5"/>
<path d="M73.3258 56.6527L72.9644 56.9188L77.0661 64.243L77.4275 63.977L73.3258 56.6527Z" fill="#0E24A5"/>
<path d="M68.1396 71.6564L68.071 72.1425L75.5662 73.5311L75.6347 73.045L68.1396 71.6564Z" fill="#0E24A5"/>
<path d="M83.7533 66.4192L76.1724 66.896L76.1959 67.3877L83.7769 66.9109L83.7533 66.4192Z" fill="#0E24A5"/>
<path d="M67.4849 204.667L75.1631 203.547C75.3818 203.514 75.604 203.549 75.8075 203.646C76.011 203.743 76.1886 203.9 76.3224 204.101C76.4563 204.302 76.5417 204.539 76.57 204.79C76.5984 205.041 76.5687 205.295 76.484 205.529L73.4879 213.716C73.401 213.945 73.2634 214.145 73.0885 214.296C72.9136 214.446 72.7075 214.541 72.4906 214.573C72.2737 214.604 72.0536 214.569 71.8518 214.473C71.65 214.377 71.4736 214.222 71.3401 214.023L66.6579 206.969C66.5244 206.769 66.439 206.532 66.4102 206.282C66.3815 206.033 66.4104 205.779 66.4941 205.546C66.5778 205.313 66.7133 205.109 66.8871 204.955C67.061 204.801 67.2671 204.701 67.4849 204.667V204.667Z" fill="#425AC2"/>
<path d="M94.7186 201.294L89.3492 192.221C89.1975 191.971 89.1047 191.68 89.0797 191.377C89.0546 191.074 89.0981 190.768 89.206 190.49C89.314 190.211 89.4826 189.969 89.6958 189.787C89.909 189.606 90.1595 189.49 90.4231 189.451L99.9592 188.651C100.231 188.629 100.502 188.689 100.747 188.825C100.992 188.962 101.201 189.169 101.354 189.427C101.508 189.684 101.599 189.984 101.62 190.295C101.641 190.606 101.59 190.918 101.473 191.199L97.3067 201.048C97.1829 201.306 97.0052 201.526 96.7895 201.686C96.5737 201.847 96.3267 201.944 96.0703 201.968C95.814 201.992 95.5564 201.944 95.3205 201.826C95.0846 201.708 94.8778 201.526 94.7186 201.294V201.294Z" fill="#425AC2"/>
<path d="M82.3797 207.597L83.4536 201.048C83.4814 200.86 83.5523 200.684 83.659 200.538C83.7658 200.392 83.9045 200.282 84.0609 200.218C84.2174 200.154 84.3858 200.139 84.549 200.174C84.7122 200.21 84.8642 200.294 84.9893 200.42L89.4137 204.741C89.5401 204.864 89.6359 205.024 89.6913 205.204C89.7468 205.383 89.7599 205.577 89.7294 205.764C89.6989 205.951 89.6259 206.126 89.5176 206.27C89.4094 206.415 89.2698 206.524 89.113 206.587L83.6362 208.816C83.4792 208.882 83.3095 208.9 83.1446 208.867C82.9797 208.834 82.8254 208.751 82.6976 208.627C82.5698 208.503 82.473 208.342 82.4172 208.161C82.3613 207.98 82.3484 207.785 82.3797 207.597Z" fill="#425AC2"/>
<path d="M77.2358 186.274L82.5085 192.762C82.66 192.946 82.7664 193.172 82.8168 193.418C82.8672 193.664 82.8599 193.92 82.7955 194.162C82.7311 194.403 82.6119 194.621 82.4502 194.792C82.2885 194.964 82.09 195.083 81.8749 195.138L74.3578 197.133C74.1432 197.189 73.9196 197.179 73.7093 197.105C73.499 197.031 73.3093 196.895 73.1593 196.711C73.0093 196.526 72.9041 196.3 72.8543 196.054C72.8046 195.808 72.812 195.552 72.8758 195.311L75.1417 186.828C75.2066 186.591 75.3246 186.377 75.484 186.208C75.6434 186.038 75.8386 185.92 76.0503 185.864C76.262 185.808 76.4827 185.816 76.6907 185.888C76.8986 185.96 77.0865 186.093 77.2358 186.274V186.274Z" fill="#425AC2"/>
<path d="M71.4789 208.693L71.2319 208.287C71.2319 208.287 75.6349 204.593 82.1641 198.032C88.6933 191.47 87.2865 184.724 85.9656 177.423L85.6112 175.417L86.0408 175.331L86.3952 177.325C87.7375 184.711 89.0047 191.803 82.4433 198.401C75.8819 205 71.5326 208.656 71.4789 208.693Z" fill="#0E24A5"/>
<path d="M83.5249 197.03L83.1003 197.164L85.0107 205.141L85.4353 205.008L83.5249 197.03Z" fill="#0E24A5"/>
<path d="M87.1631 189.051L86.9712 189.491L93.4278 193.186L93.6197 192.746L87.1631 189.051Z" fill="#0E24A5"/>
<path d="M78.0717 192.4L77.9658 192.877L84.9597 194.916L85.0655 194.439L78.0717 192.4Z" fill="#0E24A5"/>
<path d="M166.443 219.846H186.911L183.346 249.934H170.008L166.443 219.846Z" fill="#FFC1C1"/>
<path d="M63.8435 161.53L73.8199 212.238L65.8946 244.677H59.3439L62.8448 212.152C62.8448 212.152 57.5291 196.603 54.8658 188.417L50.377 189.549L51.8697 213.284L46.6184 244.677H40.0677L40.8946 213.58C40.8946 213.58 33.8177 174.432 33.9143 169.507C33.7318 168.732 63.8435 161.53 63.8435 161.53Z" fill="#FE958E"/>
<path d="M66.3463 168.966L35.4077 175.823L15.0039 149.97C14.4246 149.423 13.9518 148.743 13.6161 147.973C13.2803 147.203 13.0891 146.362 13.0547 145.502C13.0203 144.642 13.1435 143.784 13.4163 142.982C13.6892 142.181 14.1056 141.454 14.6387 140.848L27.9764 125.472C28.5012 124.857 29.1325 124.375 29.8297 124.057C30.5269 123.739 31.2745 123.592 32.0243 123.626C32.774 123.66 33.5093 123.873 34.1827 124.252C34.8561 124.632 35.4527 125.169 35.9339 125.829L66.3463 168.966Z" fill="#0E24A5"/>
<path d="M23.9707 133.695L21.3611 136.687C21.1447 136.909 20.8922 137.081 20.6179 137.191C20.3437 137.302 20.0532 137.349 19.763 137.331C19.4728 137.313 19.1886 137.229 18.9266 137.085C18.6646 136.94 18.43 136.738 18.2361 136.49L15.0145 132.797C14.5772 132.352 14.3115 131.726 14.2752 131.057C14.239 130.388 14.4353 129.73 14.8212 129.227L17.42 126.223C17.8583 125.777 18.4326 125.547 19.0178 125.584C19.6031 125.621 20.1519 125.921 20.545 126.42L23.7666 130.113C24.2061 130.559 24.4741 131.185 24.5124 131.856C24.5506 132.527 24.3559 133.188 23.9707 133.695Z" fill="#E98896"/>
<path d="M13.3074 143.47C12.5127 145.748 14.0913 175.171 15.5518 177.313C18.4728 181.56 41.7653 183.382 41.7653 183.382V176.894L24.5832 169.914L22.0703 145.477C22.0703 145.477 14.5101 140.036 13.3074 143.47Z" fill="#0E24A5"/>
<path d="M21.8441 121.126C24.357 126.383 20.8561 129.177 16.2707 132.046C15.1781 132.762 13.9719 133.222 12.7226 133.398C11.4733 133.574 10.206 133.462 8.99463 133.07C7.7833 132.678 6.65228 132.013 5.66767 131.114C4.68307 130.215 3.86462 129.101 3.26015 127.835C2.65568 126.569 2.27734 125.178 2.1472 123.743C2.01706 122.308 2.13775 120.857 2.50222 119.476C2.86669 118.095 3.46761 116.811 4.2699 115.699C5.07218 114.588 6.05975 113.67 7.17484 113.001C11.7603 110.12 19.3312 115.857 21.8441 121.126Z" fill="#FFB3B6"/>
<path d="M5.30657 123.711C5.30657 123.711 16.1636 113.863 17.9033 109.197C19.5248 104.753 18.5261 101.355 14.2628 101.293C8.78595 101.22 5.85425 107.843 4.7052 115.303C4.3186 117.802 5.30657 123.711 5.30657 123.711Z" fill="#7F4D4E"/>
<path d="M6.88553 120.942C6.88553 120.942 9.25882 123.638 8.93665 124.019C8.36596 124.344 7.892 124.855 7.5747 125.488C7.2574 126.122 7.111 126.848 7.154 127.577C7.40099 129.916 9.51656 130.039 10.8267 129.153C12.1368 128.267 14.1772 132.231 11.1596 134.57C8.14199 136.909 1.29058 131.147 0.302608 127.035C-0.685366 122.924 0.92549 115.254 2.54706 113.752C4.16862 112.25 8.42121 115.414 8.42121 115.414L6.88553 120.942Z" fill="#7F4D4E"/>
<path d="M25.6032 119.525C26.5292 120.588 27.1596 121.942 27.4147 123.415C27.6698 124.888 27.5382 126.415 27.0366 127.802C26.5349 129.19 25.6856 130.376 24.5961 131.21C23.5066 132.044 22.2259 132.49 20.9157 132.49C19.6055 132.49 18.3247 132.044 17.2352 131.21C16.1457 130.376 15.2965 129.19 14.7948 127.802C14.2931 126.415 14.1615 124.888 14.4166 123.415C14.6718 121.942 15.3022 120.588 16.2282 119.525C16.8435 118.819 17.5742 118.259 18.3786 117.877C19.1829 117.495 20.045 117.298 20.9157 117.298C21.7863 117.298 22.6485 117.495 23.4528 117.877C24.2571 118.259 24.9878 118.819 25.6032 119.525V119.525Z" fill="#7F4D4E"/>
<path d="M18.9054 120.497L16.9442 122.758C16.5427 123.221 16.5446 123.969 16.9483 124.429L17.2681 124.794C17.6718 125.254 18.3246 125.252 18.7261 124.789L20.6873 122.528C21.0887 122.066 21.0869 121.317 20.6832 120.857L20.3634 120.492C19.9597 120.032 19.3069 120.034 18.9054 120.497Z" fill="#FFB3B6"/>
<path d="M77.4177 247.866L75.0229 246.659L101.376 177.928L103.771 179.122L77.4177 247.866Z" fill="#CCCCCC"/>
<path d="M78.4923 247.065C78.5007 247.61 78.3678 248.146 78.1106 248.605C77.8534 249.064 77.4833 249.425 77.047 249.642C76.6108 249.86 76.1281 249.925 75.66 249.828C75.1918 249.731 74.7592 249.477 74.4168 249.098C74.0745 248.72 73.8378 248.233 73.7366 247.7C73.6355 247.167 73.6744 246.612 73.8486 246.104C74.0227 245.597 74.3242 245.16 74.715 244.849C75.1057 244.538 75.5681 244.367 76.0438 244.357C76.681 244.347 77.2958 244.626 77.7544 245.133C78.2129 245.64 78.4782 246.335 78.4923 247.065Z" fill="#FFC1C1"/>
<path d="M134.086 247.866L136.481 246.659L109.913 177.362L107.519 178.568L134.086 247.866Z" fill="#CCCCCC"/>
<path d="M133.013 247.066C133.005 247.611 133.138 248.147 133.395 248.606C133.652 249.064 134.022 249.425 134.458 249.643C134.895 249.861 135.377 249.925 135.846 249.828C136.314 249.731 136.746 249.477 137.089 249.099C137.431 248.72 137.668 248.234 137.769 247.701C137.87 247.168 137.831 246.612 137.657 246.105C137.483 245.597 137.181 245.16 136.791 244.849C136.4 244.538 135.937 244.367 135.462 244.357C134.825 244.35 134.212 244.631 133.754 245.137C133.296 245.644 133.03 246.336 133.013 247.066V247.066Z" fill="#FFC1C1"/>
<path d="M98.874 75.3789C99.3358 69.8021 103.277 68.2017 104.899 65.8134C106.52 63.4251 106.907 56.3341 108.84 52.4315C110.902 48.2582 114.209 41.9797 123.359 43.1369C130.704 44.0602 132.712 50.6588 132.948 55.7185C133.185 60.7783 137.115 65.5672 139.896 67.143C142.678 68.7187 144.074 74.5294 143.838 77.2378C143.601 79.9461 98.874 75.3789 98.874 75.3789Z" fill="#0E24A5"/>
<path d="M109.806 107.793H134.452L131.058 93.3896L137.501 70.3192C137.77 67.2661 135.193 64.6316 131.917 64.6316H112.308C109.086 64.6316 106.455 67.2661 106.735 70.3192L113.715 93.3896L109.806 107.793Z" fill="#FE958E"/>
<path d="M109.752 75.9456C107.755 75.6871 104.791 71.5261 100.431 62.7116C96.0711 53.897 95.6953 52.1858 95.7704 50.9178C95.8456 49.6498 98.9921 31.8361 98.9921 31.8361H103.728L102.321 51.1764C102.321 51.1764 108.142 62.1206 111.846 64.7182C113.908 66.2201 109.752 75.9456 109.752 75.9456Z" fill="#FE958E"/>
<path d="M134.205 75.9456C136.203 75.6871 139.156 71.5261 143.527 62.7116C147.897 53.897 148.262 52.1858 148.187 50.9178C148.112 49.6498 144.966 31.8361 144.966 31.8361H140.23L141.637 51.1764C141.637 51.1764 135.795 61.7144 132.67 64.8659C130.876 66.6879 134.205 75.9456 134.205 75.9456Z" fill="#FE958E"/>
<path d="M122.005 71.3414C127.462 71.3414 131.885 66.2706 131.885 60.0155C131.885 53.7603 127.462 48.6895 122.005 48.6895C116.549 48.6895 112.126 53.7603 112.126 60.0155C112.126 66.2706 116.549 71.3414 122.005 71.3414Z" fill="#E98896"/>
<path d="M172.102 74.0252H39.4023C34.1654 74.0252 29.9199 78.892 29.9199 84.8956V170.677C29.9199 176.681 34.1654 181.548 39.4023 181.548H172.102C177.339 181.548 181.585 176.681 181.585 170.677V84.8956C181.585 78.892 177.339 74.0252 172.102 74.0252Z" fill="#FEE2E3"/>
<path d="M54.9741 83.1597H41.819C39.933 83.1597 38.4041 84.9124 38.4041 87.0745V102.155C38.4041 104.317 39.933 106.07 41.819 106.07H54.9741C56.8602 106.07 58.3891 104.317 58.3891 102.155V87.0745C58.3891 84.9124 56.8602 83.1597 54.9741 83.1597Z" fill="#FFC1C1"/>
<path d="M83.904 83.1597H70.7489C68.8629 83.1597 67.334 84.9124 67.334 87.0745V102.155C67.334 104.317 68.8629 106.07 70.7489 106.07H83.904C85.7901 106.07 87.319 104.317 87.319 102.155V87.0745C87.319 84.9124 85.7901 83.1597 83.904 83.1597Z" fill="#FFC1C1"/>
<path d="M112.824 83.1597H99.6694C97.7833 83.1597 96.2544 84.9124 96.2544 87.0745V102.155C96.2544 104.317 97.7833 106.07 99.6694 106.07H112.824C114.711 106.07 116.239 104.317 116.239 102.155V87.0745C116.239 84.9124 114.711 83.1597 112.824 83.1597Z" fill="#FFC1C1"/>
<path d="M141.754 83.1597H128.599C126.713 83.1597 125.184 84.9124 125.184 87.0745V102.155C125.184 104.317 126.713 106.07 128.599 106.07H141.754C143.64 106.07 145.169 104.317 145.169 102.155V87.0745C145.169 84.9124 143.64 83.1597 141.754 83.1597Z" fill="#FFC1C1"/>
<path d="M170.685 83.1597H157.53C155.644 83.1597 154.115 84.9124 154.115 87.0745V102.155C154.115 104.317 155.644 106.07 157.53 106.07H170.685C172.571 106.07 174.1 104.317 174.1 102.155V87.0745C174.1 84.9124 172.571 83.1597 170.685 83.1597Z" fill="#FFC1C1"/>
<path d="M54.9741 115.759H41.819C39.933 115.759 38.4041 117.511 38.4041 119.673V134.754C38.4041 136.916 39.933 138.669 41.819 138.669H54.9741C56.8602 138.669 58.3891 136.916 58.3891 134.754V119.673C58.3891 117.511 56.8602 115.759 54.9741 115.759Z" fill="#FFC1C1"/>
<path d="M83.904 115.759H70.7489C68.8629 115.759 67.334 117.511 67.334 119.673V134.754C67.334 136.916 68.8629 138.669 70.7489 138.669H83.904C85.7901 138.669 87.319 136.916 87.319 134.754V119.673C87.319 117.511 85.7901 115.759 83.904 115.759Z" fill="#FFC1C1"/>
<path d="M112.824 115.759H99.6694C97.7833 115.759 96.2544 117.511 96.2544 119.673V134.754C96.2544 136.916 97.7833 138.669 99.6694 138.669H112.824C114.711 138.669 116.239 136.916 116.239 134.754V119.673C116.239 117.511 114.711 115.759 112.824 115.759Z" fill="#FFC1C1"/>
<path d="M170.685 115.759H157.53C155.644 115.759 154.115 117.511 154.115 119.673V134.754C154.115 136.916 155.644 138.669 157.53 138.669H170.685C172.571 138.669 174.1 136.916 174.1 134.754V119.673C174.1 117.511 172.571 115.759 170.685 115.759Z" fill="#FFC1C1"/>
<path d="M54.9741 148.358H41.819C39.933 148.358 38.4041 150.11 38.4041 152.272V167.353C38.4041 169.515 39.933 171.268 41.819 171.268H54.9741C56.8602 171.268 58.3891 169.515 58.3891 167.353V152.272C58.3891 150.11 56.8602 148.358 54.9741 148.358Z" fill="#FFC1C1"/>
<path d="M83.904 148.358H70.7489C68.8629 148.358 67.334 150.11 67.334 152.272V167.353C67.334 169.515 68.8629 171.268 70.7489 171.268H83.904C85.7901 171.268 87.319 169.515 87.319 167.353V152.272C87.319 150.11 85.7901 148.358 83.904 148.358Z" fill="#FFC1C1"/>
<path d="M112.824 148.358H99.6694C97.7833 148.358 96.2544 150.11 96.2544 152.272V167.353C96.2544 169.515 97.7833 171.268 99.6694 171.268H112.824C114.711 171.268 116.239 169.515 116.239 167.353V152.272C116.239 150.11 114.711 148.358 112.824 148.358Z" fill="#FFC1C1"/>
<path d="M141.754 148.358H128.599C126.713 148.358 125.184 150.11 125.184 152.272V167.353C125.184 169.515 126.713 171.268 128.599 171.268H141.754C143.64 171.268 145.169 169.515 145.169 167.353V152.272C145.169 150.11 143.64 148.358 141.754 148.358Z" fill="#FFC1C1"/>
<path d="M170.685 148.358H157.53C155.644 148.358 154.115 150.11 154.115 152.272V167.353C154.115 169.515 155.644 171.268 157.53 171.268H170.685C172.571 171.268 174.1 169.515 174.1 167.353V152.272C174.1 150.11 172.571 148.358 170.685 148.358Z" fill="#FFC1C1"/>
<path d="M65.8949 244.603H59.2798V249.527H70.7382C71.5006 249.527 71.7583 247.582 71.0925 247.151L65.8949 244.603Z" fill="#425AC2"/>
<path d="M46.6193 244.603H40.0149V249.527H51.4733C52.225 249.527 52.4934 247.582 51.8276 247.151L46.6193 244.603Z" fill="#425AC2"/>
<path d="M147.876 132.107C149.368 132.686 153.245 136.145 154.963 140.011C156.263 142.904 163.007 158.477 162.674 160.939C162.341 163.401 142.27 178.482 142.27 178.482L139.274 170.849C139.274 170.849 153.234 160.176 152.74 158.649C152.246 157.123 145.223 140.983 145.223 140.983L147.876 132.107Z" fill="white"/>
<path d="M135.236 185.696H123.188L123.843 245.379H128.492C128.492 245.379 132.015 215.353 133.346 198.758H135.032C135.258 194.4 135.258 190.067 135.236 185.696Z" fill="#FFB3B6"/>
<path d="M137.674 184.207L126.592 190.362C128.288 194.277 129.931 198.179 131.392 202.205L132.777 201.442L151.431 242.88L155.619 240.553C155.619 240.553 142.732 195.693 139.135 187.617C138.702 186.451 138.214 185.312 137.674 184.207V184.207Z" fill="#FFB3B6"/>
<path d="M144.17 166.565H126.935L122.532 134.779C122.295 132.181 124.475 129.953 127.257 129.953H145.191C147.972 129.953 150.163 132.181 149.926 134.779L144.17 166.565Z" fill="white"/>
<path d="M123.434 245.292H128.707V249.921H118.022C117.324 249.921 117.077 248.112 117.689 247.718L123.434 245.292Z" fill="#0E24A5"/>
<path d="M150.914 243.077L155.65 240.43L157.422 244.603L147.811 249.946C147.177 250.303 146.275 248.789 146.673 248.137L150.914 243.077Z" fill="#0E24A5"/>
<path d="M126.935 166.565H144.117C144.117 166.565 148.606 172.585 151.763 190.51C154.469 205.824 157.251 229.018 157.251 229.018H116.357C116.357 229.018 119.3 194.917 121.598 183.837C123.96 172.401 126.935 166.565 126.935 166.565Z" fill="#425AC2"/>
<mask id="mask0_22_3859" style="mask-type:alpha" maskUnits="userSpaceOnUse" x="122" y="129" width="28" height="38">
<path d="M144.17 166.565H126.935L122.532 134.779C122.295 132.181 124.475 129.953 127.257 129.953H145.191C147.972 129.953 150.163 132.181 149.926 134.779L144.17 166.565Z" fill="white"/>
</mask>
<g mask="url(#mask0_22_3859)">
<path d="M154.233 160.865H119.31V163.155H154.233V160.865Z" fill="#03053F"/>
<path d="M154.233 155.289H119.31V157.578H154.233V155.289Z" fill="#03053F"/>
<path d="M154.233 149.699H119.31V151.989H154.233V149.699Z" fill="#03053F"/>
<path d="M154.233 144.11H119.31V146.4H154.233V144.11Z" fill="#03053F"/>
<path d="M154.233 138.521H119.31V140.811H154.233V138.521Z" fill="#03053F"/>
<path d="M154.233 132.944H119.31V135.234H154.233V132.944Z" fill="#03053F"/>
</g>
<path d="M134.237 132.119H137.373C137.869 132.085 138.334 131.825 138.664 131.398C138.994 130.971 139.163 130.412 139.134 129.842V125.41C139.163 124.84 138.994 124.281 138.664 123.854C138.334 123.427 137.869 123.167 137.373 123.133H134.237C133.739 123.167 133.274 123.426 132.942 123.853C132.61 124.28 132.439 124.839 132.465 125.41V129.842C132.439 130.413 132.61 130.972 132.942 131.399C133.274 131.826 133.739 132.084 134.237 132.119V132.119Z" fill="#E98896"/>
<path d="M128.889 123.12C130.156 128.044 133.722 127.269 137.985 125.816C139 125.469 139.945 124.897 140.767 124.131C141.588 123.366 142.27 122.422 142.774 121.355C143.277 120.287 143.593 119.116 143.701 117.909C143.81 116.701 143.711 115.481 143.408 114.318C143.106 113.155 142.606 112.071 141.938 111.129C141.271 110.187 140.448 109.405 139.516 108.828C138.585 108.251 137.563 107.889 136.51 107.765C135.457 107.64 134.393 107.754 133.378 108.101C129.158 109.554 127.633 118.233 128.889 123.12Z" fill="#FFCACE"/>
<path d="M133.689 106.821C128.771 108.987 128.395 111.893 128.137 113.702C127.922 115.315 128.889 114.269 131.198 114.626C132.562 114.847 133.883 114.847 134.001 115.857C134.291 118.134 134.001 136.785 135.021 136.785C136.041 136.785 150.388 137.782 150.721 136.256C151.054 134.729 148.348 113.235 142.989 108.95C138.629 105.491 135.848 105.86 133.689 106.821Z" fill="#FE958E"/>
<path d="M128.374 130.113C128.374 130.113 114.95 129.46 113.243 128.968C111.535 128.475 100.152 109.591 100.152 109.591L96.5762 111.647C96.5762 111.647 106.875 133.806 109.022 134.779C111.17 135.751 123.885 141.291 123.885 141.291C123.885 141.291 126.205 141.291 127.708 136.896C129.287 132.316 128.374 130.113 128.374 130.113Z" fill="white"/>
<mask id="mask1_22_3859" style="mask-type:alpha" maskUnits="userSpaceOnUse" x="96" y="83" width="21" height="24">
<path d="M112.824 83.1597H99.6694C97.7833 83.1597 96.2544 84.9124 96.2544 87.0745V102.155C96.2544 104.317 97.7833 106.07 99.6694 106.07H112.824C114.711 106.07 116.239 104.317 116.239 102.155V87.0745C116.239 84.9124 114.711 83.1597 112.824 83.1597Z" fill="#FFC1C1"/>
</mask>
<g mask="url(#mask1_22_3859)">
<path d="M87.2226 70.961L85.6052 72.8152L125.297 118.316L126.914 116.462L87.2226 70.961Z" fill="#425AC2"/>
<path d="M125.278 70.8959L85.5869 116.397L87.2043 118.251L126.896 72.75L125.278 70.8959Z" fill="#425AC2"/>
</g>
<mask id="mask2_22_3859" style="mask-type:alpha" maskUnits="userSpaceOnUse" x="38" y="115" width="21" height="24">
<path d="M54.9741 115.759H41.819C39.933 115.759 38.4041 117.511 38.4041 119.673V134.754C38.4041 136.916 39.933 138.669 41.819 138.669H54.9741C56.8602 138.669 58.3891 136.916 58.3891 134.754V119.673C58.3891 117.511 56.8602 115.759 54.9741 115.759Z" fill="#FFC1C1"/>
</mask>
<g mask="url(#mask2_22_3859)">
<path d="M29.3559 103.564L27.7385 105.418L67.4298 150.919L69.0472 149.065L29.3559 103.564Z" fill="#425AC2"/>
<path d="M67.4298 103.564L27.7385 149.065L29.3559 150.919L69.0472 105.418L67.4298 103.564Z" fill="#425AC2"/>
</g>
<mask id="mask3_22_3859" style="mask-type:alpha" maskUnits="userSpaceOnUse" x="67" y="148" width="21" height="24">
<path d="M83.9038 148.358H70.7487C68.8627 148.358 67.3337 150.11 67.3337 152.272V167.353C67.3337 169.515 68.8627 171.268 70.7487 171.268H83.9038C85.7898 171.268 87.3188 169.515 87.3188 167.353V152.272C87.3188 150.11 85.7898 148.358 83.9038 148.358Z" fill="#FFC1C1"/>
</mask>
<g mask="url(#mask3_22_3859)">
<path d="M58.29 136.144L56.6726 137.998L96.3639 183.499L97.9813 181.645L58.29 136.144Z" fill="#425AC2"/>
<path d="M96.3639 136.132L56.6726 181.633L58.29 183.487L97.9813 137.986L96.3639 136.132Z" fill="#425AC2"/>
</g>
<path d="M125.452 56.605H118.032V67.2292H125.452V56.605Z" fill="#E98896"/>
<path d="M124.368 59.9414C121.254 62.933 119.095 60.2615 116.486 56.6914C115.865 55.8426 115.395 54.8619 115.105 53.8052C114.814 52.7486 114.708 51.6366 114.792 50.5329C114.876 49.4292 115.15 48.3553 115.596 47.3726C116.042 46.3898 116.653 45.5175 117.393 44.8053C118.134 44.0932 118.989 43.5552 119.911 43.2221C120.833 42.8889 121.803 42.7672 122.765 42.8638C123.728 42.9604 124.665 43.2734 125.522 43.785C126.379 44.2967 127.14 44.9968 127.762 45.8456C130.371 49.4403 127.482 56.9745 124.368 59.9414Z" fill="#FFB3B6"/>
<path d="M120.491 44.4174C118.88 44.4174 115.798 38.9022 118.612 35.7998C121.264 32.9191 125.549 35.5659 125.71 38.7175C126 44.1096 123.992 44.4174 120.491 44.4174Z" fill="#0E24A5"/>
<path d="M112.62 53.4167C113.694 53.4167 117.109 52.4564 117.882 49.7973C118.655 47.1382 118.859 46.7442 121.233 46.7442C124.315 46.7442 125.195 46.7442 125.646 48.677C126.334 51.5947 129.942 55.9157 132.251 55.3864C134.56 54.857 133.636 46.3256 129.931 44.3805C126.226 42.4354 116.024 39.2346 114.328 42.6078C112.631 45.981 112.008 53.4167 112.008 53.4167H112.62Z" fill="#0E24A5"/>
<path d="M101.858 97.11L96.1252 103.682L98.2514 106.12L103.984 99.5474L101.858 97.11Z" fill="white"/>
<path d="M100.152 109.554C100.152 109.554 101.226 103.768 99.9369 103.484C99.11 103.287 98.863 105.86 97.6925 105.38C97.1878 105.183 98.4335 99.9513 97.5207 99.8528C96.6079 99.7543 94.6964 104.913 94.8575 106.341C95.2982 108.174 95.8729 109.961 96.5757 111.683L100.152 109.554Z" fill="#FFB3B6"/>
<path d="M101.849 97.1077L103.975 99.5452L104.835 97.0092L104.265 96.2706L101.849 97.1077Z" fill="#FEE2E3"/>
<path d="M104.266 96.2703L104.835 96.9967C104.835 96.9967 105.651 96.1103 105.339 95.7656C105.028 95.4209 104.266 96.2703 104.266 96.2703Z" fill="#0E24A5"/>
<mask id="mask4_22_3859" style="mask-type:alpha" maskUnits="userSpaceOnUse" x="116" y="166" width="42" height="64">
<path d="M126.935 166.565H144.117C144.117 166.565 148.606 172.585 151.763 190.51C154.469 205.824 157.251 229.018 157.251 229.018H116.357C116.357 229.018 119.3 194.917 121.598 183.837C123.96 172.401 126.935 166.565 126.935 166.565Z" fill="#425AC2"/>
</mask>
<g mask="url(#mask4_22_3859)">
<path d="M120.653 175.946H129.652C129.652 175.946 130.446 189.402 123.294 192.024C117.71 194.08 116.411 190.51 116.411 190.51L120.653 175.946Z" fill="#0E24A5"/>
</g>
<path d="M41.7653 183.382C41.7653 183.382 50.0987 182.619 50.8934 181.252C51.688 179.886 49.4436 177.768 46.3938 178.064C45.4525 178.199 44.5449 178.551 43.7255 179.099C42.9061 179.647 42.1919 180.38 41.6257 181.252L41.7653 183.382Z" fill="#FFB3B6"/>
<path d="M99.014 31.8115H103.75C103.75 31.8115 105.318 23.6741 104.459 23.194C103.943 22.9231 103.202 25.7792 102.869 26.4563C102.536 27.1334 99.959 26.1609 99.2932 27.2196C98.6274 28.2783 99.014 31.8115 99.014 31.8115Z" fill="#FFB3B6"/>
<path d="M145.041 31.8115H140.305C140.305 31.8115 138.737 23.6741 139.596 23.194C140.111 22.9231 140.852 25.7792 141.185 26.4563C141.518 27.1334 144.096 26.1609 144.761 27.2196C145.427 28.2783 145.041 31.8115 145.041 31.8115Z" fill="#FFB3B6"/>
<path d="M199.53 222.382H161.407V224.807H199.53V222.382Z" fill="#FEE2E3"/>
<path d="M124.089 8.23592C124.089 10.3657 121.823 15.8932 121.823 15.8932C121.823 15.8932 119.063 10.3657 119.063 8.23592C119.063 6.10615 121.823 0 121.823 0C121.823 0 124.089 6.11846 124.089 8.23592Z" fill="#FFC1C1"/>
<path d="M99.4222 13.5298C100.496 15.2779 101.398 21.2979 101.398 21.2979C101.398 21.2979 96.3724 18.5895 95.2985 16.8414C94.2246 15.0932 93.4407 8.22382 93.4407 8.22382C93.4407 8.22382 98.3483 11.7816 99.4222 13.5298Z" fill="#FFC1C1"/>
<path d="M84.6454 33.5102C86.3851 34.2858 90.0148 38.73 90.0148 38.73C90.0148 38.73 84.5165 39.6533 82.7876 38.8778C81.0586 38.1022 77.1174 32.9193 77.1174 32.9193C77.1174 32.9193 82.9057 32.7346 84.6454 33.5102Z" fill="#FFC1C1"/>
<path d="M143.526 13.5298C142.453 15.2779 141.55 21.2979 141.55 21.2979C141.55 21.2979 146.576 18.5895 147.65 16.8414C148.724 15.0932 149.508 8.22382 149.508 8.22382C149.508 8.22382 144.6 11.7816 143.526 13.5298Z" fill="#FFC1C1"/>
<path d="M158.303 33.5102C156.574 34.2858 152.933 38.73 152.933 38.73C152.933 38.73 158.432 39.6533 160.171 38.8778C161.911 38.1022 165.841 32.9193 165.841 32.9193C165.841 32.9193 160.042 32.7346 158.303 33.5102Z" fill="#FFC1C1"/>
</svg>
