<svg width="28" height="24" viewBox="0 0 28 24" fill="none" xmlns="http://www.w3.org/2000/svg">
<path d="M20.9881 2C22.6881 4.3 19.1881 4.3 20.9881 7M13.9881 23C27.4881 23 27.1881 21.2 26.8881 17.4C26.5881 13.2 21.9881 10 13.9881 10C5.98811 10 1.38811 13.2 1.08811 17.4C0.788114 21.2 0.488114 23 13.9881 23ZM13.9881 15C13.9881 13.5 14.0881 11.8 14.9881 10L13.9881 15ZM7.98811 15C7.98811 13.5 8.08811 12.4 8.98811 10.7L7.98811 15ZM19.9881 15C19.9881 13.7 20.0881 12.6 20.7881 11.1L19.9881 15ZM13.9881 1C15.6881 3.3 12.1881 3.3 13.9881 6V1ZM6.98811 2C8.68811 4.3 5.18811 4.3 6.98811 7V2Z" stroke="#21A300" stroke-width="2" stroke-miterlimit="10" stroke-linecap="round" stroke-linejoin="round"/>
</svg>
