<svg width="327" height="24" viewBox="0 0 327 24" fill="none" xmlns="http://www.w3.org/2000/svg">
<path d="M160.448 9.768C161.04 9.768 161.573 9.86667 162.048 10.064C162.528 10.2613 162.933 10.5413 163.264 10.904C163.6 11.2667 163.856 11.7067 164.032 12.224C164.213 12.736 164.304 13.3093 164.304 13.944C164.304 14.584 164.213 15.16 164.032 15.672C163.856 16.184 163.6 16.6213 163.264 16.984C162.933 17.3467 162.528 17.6267 162.048 17.824C161.573 18.016 161.04 18.112 160.448 18.112C159.856 18.112 159.32 18.016 158.84 17.824C158.365 17.6267 157.96 17.3467 157.624 16.984C157.288 16.6213 157.029 16.184 156.848 15.672C156.667 15.16 156.576 14.584 156.576 13.944C156.576 13.3093 156.667 12.736 156.848 12.224C157.029 11.7067 157.288 11.2667 157.624 10.904C157.96 10.5413 158.365 10.2613 158.84 10.064C159.32 9.86667 159.856 9.768 160.448 9.768ZM160.448 17C161.248 17 161.845 16.7333 162.24 16.2C162.635 15.6613 162.832 14.912 162.832 13.952C162.832 12.9867 162.635 12.2347 162.24 11.696C161.845 11.1573 161.248 10.888 160.448 10.888C160.043 10.888 159.691 10.9573 159.392 11.096C159.093 11.2347 158.843 11.4347 158.64 11.696C158.443 11.9573 158.293 12.28 158.192 12.664C158.096 13.0427 158.048 13.472 158.048 13.952C158.048 14.432 158.096 14.8613 158.192 15.24C158.293 15.6187 158.443 15.9387 158.64 16.2C158.843 16.456 159.093 16.6533 159.392 16.792C159.691 16.9307 160.043 17 160.448 17ZM166.059 18V9.896H166.875C167.029 9.896 167.136 9.92533 167.195 9.984C167.253 10.0427 167.293 10.144 167.315 10.288L167.411 11.552C167.688 10.9867 168.029 10.5467 168.435 10.232C168.845 9.912 169.325 9.752 169.875 9.752C170.099 9.752 170.301 9.77867 170.483 9.832C170.664 9.88 170.832 9.94933 170.987 10.04L170.803 11.104C170.765 11.2373 170.683 11.304 170.555 11.304C170.48 11.304 170.365 11.28 170.211 11.232C170.056 11.1787 169.84 11.152 169.563 11.152C169.067 11.152 168.651 11.296 168.315 11.584C167.984 11.872 167.707 12.2907 167.483 12.84V18H166.059Z" fill="#979797"/>
<path d="M154 14H0" stroke="#979797"/>
<path d="M327 14H174" stroke="#979797"/>
</svg>
