<svg width="113" height="185" viewBox="0 0 113 185" fill="none" xmlns="http://www.w3.org/2000/svg">
<path d="M89.2902 61.722V79.8945C89.2902 84.4281 87.6805 88.3046 84.4613 91.5238C81.2421 94.7431 77.3656 96.3527 72.832 96.3527H25.2863C20.7527 96.3527 16.8762 94.7431 13.657 91.5238C10.4377 88.3046 8.82812 84.4281 8.82812 79.8945V32.3488C8.82812 27.8152 10.4377 23.9387 13.657 20.7195C16.8762 17.5002 20.7527 15.8906 25.2863 15.8906H72.832C75.2322 15.8906 77.4609 16.3668 79.5181 17.3193C80.0896 17.586 80.4325 18.0241 80.5468 18.6336C80.6611 19.2813 80.4896 19.8337 80.0325 20.2909L77.2323 23.0911C76.8513 23.472 76.4132 23.6625 75.9179 23.6625C75.8036 23.6625 75.6322 23.6244 75.4036 23.5482C74.5274 23.3196 73.6702 23.2054 72.832 23.2054H25.2863C22.7718 23.2054 20.6193 24.1006 18.8287 25.8912C17.0381 27.6818 16.1429 29.8343 16.1429 32.3488V79.8945C16.1429 82.409 17.0381 84.5615 18.8287 86.3521C20.6193 88.1427 22.7718 89.0379 25.2863 89.0379H72.832C75.3465 89.0379 77.499 88.1427 79.2896 86.3521C81.0801 84.5615 81.9754 82.409 81.9754 79.8945V65.3794C81.9754 64.8841 82.1469 64.465 82.4898 64.1221L86.1471 60.4648C86.5281 60.0838 86.9662 59.8933 87.4615 59.8933C87.6901 59.8933 87.9187 59.9505 88.1472 60.0647C88.9092 60.3695 89.2902 60.9219 89.2902 61.722ZM102.491 33.7774L55.9739 80.2946C55.0595 81.2089 53.9737 81.6661 52.7165 81.6661C51.4593 81.6661 50.3735 81.2089 49.4592 80.2946L24.8862 55.7216C23.9719 54.8073 23.5147 53.7215 23.5147 52.4643C23.5147 51.2071 23.9719 50.1213 24.8862 49.2069L31.1723 42.9208C32.0867 42.0065 33.1725 41.5493 34.4297 41.5493C35.6869 41.5493 36.7727 42.0065 37.687 42.9208L52.7165 57.9503L89.6902 20.9766C90.6045 20.0623 91.6903 19.6051 92.9475 19.6051C94.2048 19.6051 95.2905 20.0623 96.2049 20.9766L102.491 27.2627C103.405 28.1771 103.862 29.2629 103.862 30.5201C103.862 31.7773 103.405 32.8631 102.491 33.7774Z" fill="#8685E7"/>
<path d="M32.42 151.5H23.7V176H18.32V151.5H9.6V147.08H32.42V151.5ZM39.6997 155.16C41.2197 155.16 42.5997 155.407 43.8397 155.9C45.093 156.393 46.1597 157.093 47.0397 158C47.933 158.907 48.6197 160.013 49.0997 161.32C49.5797 162.627 49.8197 164.087 49.8197 165.7C49.8197 167.327 49.5797 168.793 49.0997 170.1C48.6197 171.407 47.933 172.52 47.0397 173.44C46.1597 174.36 45.093 175.067 43.8397 175.56C42.5997 176.053 41.2197 176.3 39.6997 176.3C38.1664 176.3 36.773 176.053 35.5197 175.56C34.2664 175.067 33.193 174.36 32.2997 173.44C31.4197 172.52 30.733 171.407 30.2397 170.1C29.7597 168.793 29.5197 167.327 29.5197 165.7C29.5197 164.087 29.7597 162.627 30.2397 161.32C30.733 160.013 31.4197 158.907 32.2997 158C33.193 157.093 34.2664 156.393 35.5197 155.9C36.773 155.407 38.1664 155.16 39.6997 155.16ZM39.6997 172.5C41.4064 172.5 42.6664 171.927 43.4797 170.78C44.3064 169.633 44.7197 167.953 44.7197 165.74C44.7197 163.527 44.3064 161.84 43.4797 160.68C42.6664 159.52 41.4064 158.94 39.6997 158.94C37.9664 158.94 36.6797 159.527 35.8397 160.7C35.013 161.86 34.5997 163.54 34.5997 165.74C34.5997 167.94 35.013 169.62 35.8397 170.78C36.6797 171.927 37.9664 172.5 39.6997 172.5ZM79.4234 161.54C79.4234 163.66 79.0701 165.607 78.3634 167.38C77.6568 169.153 76.6634 170.68 75.3834 171.96C74.1034 173.24 72.5634 174.233 70.7634 174.94C68.9634 175.647 66.9634 176 64.7634 176H53.7434V147.08H64.7634C66.9634 147.08 68.9634 147.44 70.7634 148.16C72.5634 148.867 74.1034 149.86 75.3834 151.14C76.6634 152.407 77.6568 153.927 78.3634 155.7C79.0701 157.473 79.4234 159.42 79.4234 161.54ZM73.9034 161.54C73.9034 159.953 73.6901 158.533 73.2634 157.28C72.8501 156.013 72.2434 154.947 71.4434 154.08C70.6568 153.2 69.6968 152.527 68.5634 152.06C67.4434 151.593 66.1768 151.36 64.7634 151.36H59.1434V171.72H64.7634C66.1768 171.72 67.4434 171.487 68.5634 171.02C69.6968 170.553 70.6568 169.887 71.4434 169.02C72.2434 168.14 72.8501 167.073 73.2634 165.82C73.6901 164.553 73.9034 163.127 73.9034 161.54ZM92.1997 155.16C93.7197 155.16 95.0997 155.407 96.3397 155.9C97.593 156.393 98.6597 157.093 99.5397 158C100.433 158.907 101.12 160.013 101.6 161.32C102.08 162.627 102.32 164.087 102.32 165.7C102.32 167.327 102.08 168.793 101.6 170.1C101.12 171.407 100.433 172.52 99.5397 173.44C98.6597 174.36 97.593 175.067 96.3397 175.56C95.0997 176.053 93.7197 176.3 92.1997 176.3C90.6664 176.3 89.273 176.053 88.0197 175.56C86.7664 175.067 85.693 174.36 84.7997 173.44C83.9197 172.52 83.233 171.407 82.7397 170.1C82.2597 168.793 82.0197 167.327 82.0197 165.7C82.0197 164.087 82.2597 162.627 82.7397 161.32C83.233 160.013 83.9197 158.907 84.7997 158C85.693 157.093 86.7664 156.393 88.0197 155.9C89.273 155.407 90.6664 155.16 92.1997 155.16ZM92.1997 172.5C93.9064 172.5 95.1664 171.927 95.9797 170.78C96.8064 169.633 97.2197 167.953 97.2197 165.74C97.2197 163.527 96.8064 161.84 95.9797 160.68C95.1664 159.52 93.9064 158.94 92.1997 158.94C90.4664 158.94 89.1797 159.527 88.3397 160.7C87.513 161.86 87.0997 163.54 87.0997 165.74C87.0997 167.94 87.513 169.62 88.3397 170.78C89.1797 171.927 90.4664 172.5 92.1997 172.5Z" fill="white"/>
</svg>
